<svg xmlns="http://www.w3.org/2000/svg" xmlns:xlink="http://www.w3.org/1999/xlink" width="1080" zoomAndPan="magnify" viewBox="0 0 810 809.999993" height="1080" preserveAspectRatio="xMidYMid meet" version="1.0"><defs><clipPath id="371bedaeb1"><path d="M 111.71875 210 L 692 210 L 692 600.230469 L 111.71875 600.230469 Z M 111.71875 210 " clip-rule="nonzero"/></clipPath><clipPath id="cc082c4a27"><path d="M 111.71875 210 L 692 210 L 692 600.230469 L 111.71875 600.230469 Z M 111.71875 210 " clip-rule="nonzero"/></clipPath></defs><g clip-path="url(#371bedaeb1)"><path fill="#ffbab3" d="M 535.347656 589.125 L 435.105469 589.125 C 435.628906 588.945312 436.101562 588.617188 436.429688 588.15625 C 436.933594 587.445312 437.066406 586.53125 436.78125 585.707031 L 429.144531 563.605469 L 460.6875 563.605469 C 462.546875 563.605469 464.238281 562.4375 464.902344 560.699219 L 497.664062 474.550781 C 498.1875 473.164062 498 471.605469 497.160156 470.386719 C 496.316406 469.167969 494.929688 468.441406 493.449219 468.441406 L 350.726562 468.441406 C 349.042969 468.441406 347.507812 469.5 346.910156 471.074219 L 316.105469 552.074219 C 315.957031 552.074219 315.8125 552.0625 315.660156 552.066406 L 295.222656 536.519531 C 294.164062 532.074219 283.753906 489.21875 271.957031 475.1875 C 260.667969 461.761719 247.066406 459.070312 244.46875 458.671875 L 237.144531 447.484375 L 237.144531 445.214844 C 240.15625 444.007812 242.835938 442.089844 244.960938 439.554688 C 246.367188 437.882812 247.304688 436.117188 247.929688 434.316406 C 252.925781 432.113281 256.421875 427.125 256.421875 421.324219 C 256.421875 415.902344 253.363281 411.183594 248.882812 408.792969 C 249.03125 408.046875 249.191406 407.265625 249.359375 406.460938 C 249.949219 403.570312 250.621094 400.300781 251.050781 396.933594 C 251.3125 394.890625 251.839844 387.902344 247.71875 383.621094 C 247.253906 383.136719 246.730469 382.6875 246.191406 382.25 C 243.410156 376.378906 239.125 372.328125 227.46875 371.605469 C 222.539062 371.300781 216.707031 371.589844 211.589844 373.589844 C 209.910156 373.582031 199.484375 373.917969 194.894531 383.277344 C 190.683594 391.863281 192.789062 404.484375 193.453125 407.828125 C 187.765625 409.679688 183.640625 415.027344 183.640625 421.324219 C 183.640625 429.152344 190.011719 435.519531 197.835938 435.519531 C 199.96875 435.519531 201.984375 435.035156 203.796875 434.1875 L 203.796875 443.367188 L 194.507812 454.585938 C 191.867188 455.46875 171.148438 462.761719 161.960938 476.382812 C 152.34375 490.644531 144.375 534.175781 143.695312 556.5625 C 143.367188 567.363281 146.007812 575.730469 151.542969 581.433594 C 155.328125 585.335938 160.414062 587.886719 166.667969 589.125 L 117.265625 589.125 C 114.203125 589.125 111.71875 591.609375 111.71875 594.671875 C 111.71875 597.734375 114.203125 600.21875 117.265625 600.21875 L 535.347656 600.21875 C 538.410156 600.21875 540.894531 597.734375 540.894531 594.671875 C 540.894531 591.609375 538.410156 589.125 535.347656 589.125 Z M 268.714844 582.359375 L 268.695312 581.910156 C 268.777344 581.765625 268.832031 581.609375 268.824219 581.429688 L 267.878906 562.953125 C 269.042969 564.851562 270.792969 567.253906 273.277344 569.640625 C 278.023438 574.199219 286.4375 579.460938 299.699219 579.152344 C 300.101562 579.996094 300.53125 580.699219 300.980469 581.121094 C 301.640625 581.742188 302.4375 582.152344 303.269531 582.359375 Z M 305.578125 582.359375 C 305.6875 582.332031 305.796875 582.3125 305.898438 582.277344 C 306.730469 581.984375 307.382812 581.441406 307.863281 580.742188 C 308.460938 581.519531 309.214844 582.085938 310.054688 582.359375 Z M 396.777344 582.320312 C 396.765625 582.335938 396.746094 582.34375 396.734375 582.359375 L 312.304688 582.359375 C 313.1875 582.066406 313.988281 581.4375 314.601562 580.488281 C 314.773438 580.222656 314.929688 579.925781 315.074219 579.613281 C 315.828125 580.558594 316.824219 581.175781 317.917969 581.3125 C 318.070312 581.332031 318.21875 581.339844 318.367188 581.339844 C 319.679688 581.339844 320.898438 580.609375 321.753906 579.28125 C 323.191406 577.054688 323.652344 573.261719 323.203125 567.347656 C 323.171875 566.9375 323.128906 566.546875 323.085938 566.160156 C 323.613281 566.921875 324.191406 567.914062 324.722656 569.21875 C 325.0625 570.0625 325.308594 570.914062 325.539062 571.734375 C 326 573.351562 326.433594 574.878906 327.535156 576.179688 C 328.289062 577.070312 329.988281 577.828125 331.664062 577.476562 C 333.027344 577.195312 334.015625 576.226562 334.453125 574.753906 C 335.261719 572.019531 335.34375 567.847656 333.550781 563.605469 L 390.621094 563.605469 L 396.871094 581.679688 C 396.945312 581.898438 396.914062 582.132812 396.777344 582.320312 Z M 454.113281 393.121094 L 443.269531 398.609375 C 442.675781 398.582031 442.085938 398.554688 441.46875 398.53125 L 439.363281 398.441406 C 436.859375 398.328125 434.460938 398.78125 432.265625 399.683594 L 408.710938 332.023438 C 408.050781 330.136719 406.265625 328.867188 404.269531 328.867188 L 279.382812 328.867188 C 278.21875 328.867188 277.164062 329.410156 276.492188 330.355469 C 275.820312 331.304688 275.652344 332.476562 276.035156 333.574219 L 309.265625 429.015625 C 310.019531 431.183594 312.070312 432.640625 314.367188 432.640625 L 531.785156 432.640625 C 531.917969 432.640625 532.046875 432.609375 532.179688 432.597656 C 536.523438 432.625 540.890625 432.636719 545.152344 432.636719 C 558.835938 432.636719 571.371094 432.492188 578.152344 432.054688 C 578.414062 432.039062 578.667969 432.015625 578.925781 431.988281 L 579.433594 431.9375 C 579.675781 431.917969 579.898438 431.800781 580.050781 431.613281 C 580.203125 431.421875 580.273438 431.175781 580.238281 430.933594 L 579.441406 425.136719 C 596.3125 423.75 606.527344 419.765625 608.949219 408.648438 C 609.265625 407.207031 609.488281 405.691406 609.652344 404.160156 C 631.136719 384.488281 644.632812 356.234375 644.632812 324.878906 C 644.632812 271.167969 605.039062 226.527344 553.503906 218.617188 C 553.476562 218.578125 553.453125 218.53125 553.425781 218.492188 C 550.195312 214.109375 544.824219 211.5625 537.453125 210.917969 C 523.660156 209.710938 505.980469 215.726562 501.269531 220.214844 C 499.960938 221.464844 498.964844 222.972656 498.308594 224.652344 C 458.160156 240.253906 429.613281 279.285156 429.613281 324.878906 C 429.613281 350.765625 438.8125 374.546875 454.113281 393.121094 Z M 461.367188 421.148438 C 461.863281 421.167969 462.359375 421.144531 462.824219 421.019531 C 462.878906 421.003906 462.929688 420.972656 462.984375 420.957031 C 467.933594 420.308594 472.378906 419.09375 476.082031 417.542969 C 477.160156 418.5 478.726562 418.714844 479.855469 418.363281 C 480.488281 418.160156 481.195312 417.710938 481.96875 417.117188 C 483.0625 417.777344 484.171875 418.414062 485.292969 419.03125 C 485.34375 419.273438 485.40625 419.503906 485.476562 419.714844 L 485.316406 423.402344 L 452.285156 423.402344 C 452.652344 422.894531 453.007812 422.21875 453.335938 421.429688 C 453.988281 421.449219 454.640625 421.46875 455.285156 421.46875 C 457.378906 421.472656 459.40625 421.351562 461.367188 421.148438 Z M 669.238281 389.71875 L 684.894531 384.46875 C 685.253906 384.347656 685.496094 384.011719 685.5 383.632812 C 685.5 383.253906 685.261719 382.914062 684.902344 382.789062 L 648.085938 370.042969 C 647.761719 369.929688 647.40625 370.015625 647.164062 370.253906 C 646.925781 370.492188 646.84375 370.851562 646.953125 371.171875 L 659.699219 407.988281 C 659.824219 408.34375 660.160156 408.582031 660.535156 408.585938 C 660.539062 408.585938 660.539062 408.585938 660.539062 408.585938 C 660.917969 408.585938 661.253906 408.347656 661.378906 407.992188 L 667.449219 390.792969 C 671.65625 392.929688 680.152344 398.03125 685.523438 406.59375 C 691.113281 415.5 691.644531 425.359375 687.101562 435.898438 C 681.390625 449.148438 665.675781 457.539062 649.71875 456.636719 C 647.710938 449.046875 644.703125 442.597656 640.738281 437.40625 C 639.144531 435.320312 636.621094 432.410156 633.101562 431.203125 C 629.957031 430.128906 625.683594 430.695312 623.585938 433.859375 C 621.765625 436.617188 622.4375 440.054688 623 441.859375 C 625.839844 450.929688 635.394531 455.933594 643.390625 457.59375 C 645.027344 457.933594 646.667969 458.171875 648.3125 458.316406 C 648.683594 459.828125 649.015625 461.386719 649.304688 462.984375 C 649.636719 464.792969 649.894531 466.617188 650.109375 468.445312 L 577.601562 468.445312 C 574.140625 468.445312 571.324219 471.261719 571.324219 474.726562 L 571.324219 532.507812 C 571.324219 533.183594 571.457031 533.820312 571.652344 534.425781 L 571.640625 534.441406 C 571.265625 534.757812 571.214844 535.316406 571.53125 535.691406 C 571.707031 535.898438 571.960938 536.007812 572.210938 536.007812 C 572.265625 536.007812 572.320312 535.988281 572.375 535.976562 C 573.503906 537.667969 575.421875 538.789062 577.605469 538.789062 L 625.222656 538.789062 C 618.65625 543.335938 608.863281 548.574219 601.085938 552.167969 C 578.121094 562.792969 522.804688 565.40625 488.402344 545.324219 C 487.976562 545.074219 487.433594 545.21875 487.1875 545.644531 C 486.9375 546.066406 487.082031 546.609375 487.503906 546.859375 C 506.167969 557.75 530.894531 562.054688 553.433594 562.054688 C 573.042969 562.054688 590.988281 558.796875 601.832031 553.78125 C 610.503906 549.769531 621.6875 543.722656 628.265625 538.789062 L 672.21875 538.789062 C 674.398438 538.789062 676.320312 537.671875 677.445312 535.976562 C 677.5 535.988281 677.554688 536.007812 677.613281 536.007812 C 677.863281 536.007812 678.113281 535.898438 678.289062 535.691406 C 678.605469 535.316406 678.558594 534.757812 678.183594 534.441406 L 678.167969 534.425781 C 678.363281 533.820312 678.5 533.183594 678.5 532.507812 L 678.5 474.726562 C 678.5 471.261719 675.683594 468.445312 672.21875 468.445312 L 651.902344 468.445312 C 651.679688 466.507812 651.40625 464.582031 651.058594 462.667969 C 650.792969 461.222656 650.496094 459.8125 650.171875 458.4375 C 666.6875 459.164062 682.800781 450.363281 688.734375 436.601562 C 698.242188 414.539062 684.5625 397.84375 669.238281 389.71875 Z M 643.753906 455.855469 C 636.25 454.296875 627.308594 449.660156 624.699219 441.324219 C 624.230469 439.824219 623.65625 436.980469 625.074219 434.839844 C 626.167969 433.1875 628.148438 432.484375 630.074219 432.484375 C 630.933594 432.484375 631.78125 432.625 632.527344 432.882812 C 634.863281 433.679688 637.023438 435.460938 639.332031 438.484375 C 643.046875 443.351562 645.898438 449.386719 647.84375 456.484375 C 646.476562 456.34375 645.113281 456.136719 643.753906 455.855469 Z M 214.933594 359.484375 C 215.082031 359.789062 215.394531 359.984375 215.734375 359.984375 C 216.070312 359.984375 216.382812 359.789062 216.53125 359.484375 L 233.550781 324.4375 C 233.714844 324.097656 233.648438 323.691406 233.382812 323.421875 C 233.117188 323.15625 232.710938 323.085938 232.371094 323.25 L 215.847656 331.152344 C 211.125 320.269531 210.449219 304.46875 217.644531 297.089844 C 222.699219 291.910156 231.585938 290.257812 239.757812 292.980469 C 241.886719 293.6875 243.894531 294.625 245.777344 295.714844 C 244.53125 302.769531 247.726562 311.652344 255.242188 314.332031 C 257.921875 315.292969 261.40625 314.941406 262.585938 312.40625 C 263.886719 309.601562 261.238281 306.710938 260.367188 305.761719 C 257.054688 302.15625 252.878906 298.007812 247.773438 294.839844 C 249.371094 288.171875 254.191406 282.535156 258.289062 278.316406 C 263.566406 272.882812 269.414062 267.953125 275.6875 263.582031 L 275.6875 291.226562 C 275.6875 291.898438 275.824219 292.535156 276.019531 293.144531 L 276.003906 293.15625 C 275.628906 293.476562 275.582031 294.035156 275.898438 294.410156 C 276.074219 294.617188 276.324219 294.726562 276.578125 294.726562 C 276.632812 294.726562 276.6875 294.707031 276.742188 294.695312 C 277.867188 296.386719 279.789062 297.507812 281.96875 297.507812 L 376.582031 297.507812 C 378.761719 297.507812 380.683594 296.386719 381.808594 294.695312 C 381.863281 294.707031 381.917969 294.726562 381.972656 294.726562 C 382.226562 294.726562 382.476562 294.617188 382.652344 294.410156 C 382.96875 294.035156 382.921875 293.476562 382.546875 293.15625 L 382.53125 293.144531 C 382.726562 292.535156 382.863281 291.898438 382.863281 291.226562 L 382.863281 246.667969 C 385.832031 247.558594 388.765625 248.558594 391.648438 249.671875 C 401.75 253.578125 422.882812 265.8125 429.847656 273.511719 C 430.175781 273.875 430.734375 273.902344 431.101562 273.574219 C 431.464844 273.246094 431.492188 272.683594 431.164062 272.320312 C 424.046875 264.449219 402.546875 251.984375 392.289062 248.015625 C 389.199219 246.820312 386.050781 245.765625 382.863281 244.820312 L 382.863281 233.445312 C 382.863281 229.980469 380.046875 227.164062 376.582031 227.164062 L 281.96875 227.164062 C 278.507812 227.164062 275.6875 229.980469 275.6875 233.445312 L 275.6875 261.441406 C 268.9375 266.042969 262.652344 271.273438 257.015625 277.082031 C 252.859375 281.355469 247.992188 287.050781 246.179688 293.902344 C 244.339844 292.875 242.386719 291.984375 240.320312 291.296875 C 231.515625 288.363281 221.890625 290.195312 216.375 295.851562 C 208.863281 303.550781 209.109375 318.964844 213.632812 330.484375 L 199.109375 323.253906 C 198.769531 323.085938 198.359375 323.152344 198.089844 323.417969 C 197.820312 323.6875 197.75 324.09375 197.914062 324.4375 Z M 247.417969 296.71875 C 252.089844 299.734375 255.957031 303.59375 259.058594 306.964844 C 260.886719 308.960938 261.511719 310.496094 260.972656 311.660156 C 260.273438 313.160156 257.761719 313.347656 255.835938 312.664062 C 249.445312 310.382812 246.617188 302.921875 247.417969 296.71875 Z M 247.417969 296.71875 " fill-opacity="1" fill-rule="nonzero"/></g><path fill="#ffffff" d="M 248.1875 588.695312 L 248.265625 589.125 C 247.230469 589.125 246.175781 589.125 245.089844 589.125 C 232.675781 589.125 217.136719 589.125 203.4375 589.125 C 203.4375 589.015625 203.546875 581.617188 210.0625 576.863281 C 210.128906 576.929688 210.203125 576.992188 210.296875 577.035156 C 210.777344 577.253906 211.253906 577.542969 211.730469 577.859375 C 214.199219 579.519531 216.507812 582.320312 218.125 584.296875 C 218.5625 584.832031 218.949219 585.304688 219.269531 585.664062 C 220.226562 586.753906 221.574219 587.371094 222.980469 587.371094 C 223.023438 587.371094 223.066406 587.371094 223.109375 587.371094 C 224.28125 587.339844 225.332031 586.878906 225.917969 586.140625 C 225.945312 586.101562 225.953125 586.0625 225.980469 586.023438 C 226.765625 586.632812 227.808594 586.988281 228.921875 586.988281 C 229.042969 586.988281 229.167969 586.984375 229.289062 586.972656 C 230.527344 586.890625 231.597656 586.382812 232.226562 585.578125 C 232.226562 585.578125 232.230469 585.574219 232.230469 585.574219 C 233.007812 586.140625 233.921875 586.476562 234.824219 586.476562 C 235.035156 586.476562 235.242188 586.457031 235.449219 586.425781 C 236.753906 586.203125 237.777344 585.292969 238.257812 583.925781 C 238.8125 582.347656 238.808594 579.792969 237.503906 576.859375 C 237.195312 576.164062 236.835938 575.457031 236.371094 574.726562 C 236.320312 574.644531 236.265625 574.574219 236.210938 574.496094 C 240.683594 575.953125 243.429688 578.261719 245.148438 580.675781 C 245.597656 581.300781 245.972656 581.929688 246.296875 582.554688 C 247.394531 584.699219 247.835938 586.765625 248.105469 588.234375 C 248.132812 588.398438 248.160156 588.550781 248.1875 588.695312 Z M 310.054688 582.359375 L 267.996094 582.359375 C 267.988281 582.359375 267.984375 582.359375 267.980469 582.359375 C 267.96875 582.363281 267.953125 582.363281 267.933594 582.363281 C 267.925781 582.363281 267.917969 582.359375 267.910156 582.359375 L 257.359375 582.359375 L 257.359375 589.164062 L 358.640625 589.164062 C 357.695312 588.910156 356.917969 588.253906 356.5 587.386719 C 356.292969 586.949219 356.164062 586.46875 356.164062 585.953125 C 356.164062 585.28125 356.367188 584.65625 356.710938 584.132812 C 357.304688 583.222656 358.332031 582.613281 359.503906 582.613281 L 396.207031 582.613281 C 396.417969 582.613281 396.597656 582.515625 396.734375 582.359375 Z M 497.15625 470.390625 C 498 471.609375 498.1875 473.164062 497.660156 474.550781 L 464.898438 560.699219 C 464.238281 562.4375 462.546875 563.605469 460.6875 563.605469 L 429.140625 563.605469 L 428.527344 561.828125 L 419.859375 536.746094 C 419.734375 536.386719 419.398438 536.148438 419.019531 536.148438 L 382.375 536.148438 C 382.089844 536.148438 381.820312 536.285156 381.652344 536.519531 C 381.484375 536.753906 381.441406 537.054688 381.535156 537.324219 L 390.007812 561.828125 L 390.621094 563.605469 L 317.046875 563.605469 L 317.722656 561.828125 L 352.5625 470.214844 L 353.238281 468.441406 L 493.449219 468.441406 C 494.929688 468.441406 496.316406 469.167969 497.15625 470.390625 Z M 431.9375 503.628906 L 393.632812 503.628906 C 393.140625 503.628906 392.746094 504.027344 392.746094 504.519531 C 392.746094 505.007812 393.140625 505.40625 393.632812 505.40625 L 431.9375 505.40625 C 432.429688 505.40625 432.824219 505.007812 432.824219 504.519531 C 432.824219 504.027344 432.429688 503.628906 431.9375 503.628906 Z M 425.554688 523.640625 C 425.554688 523.148438 425.15625 522.753906 424.664062 522.753906 L 386.359375 522.753906 C 385.871094 522.753906 385.472656 523.148438 385.472656 523.640625 C 385.472656 524.132812 385.871094 524.527344 386.359375 524.527344 L 424.664062 524.527344 C 425.15625 524.527344 425.554688 524.132812 425.554688 523.640625 Z M 427.976562 517.265625 C 427.976562 516.777344 427.582031 516.378906 427.089844 516.378906 L 388.785156 516.378906 C 388.292969 516.378906 387.898438 516.777344 387.898438 517.265625 C 387.898438 517.757812 388.292969 518.15625 388.785156 518.15625 L 427.089844 518.15625 C 427.582031 518.15625 427.976562 517.757812 427.976562 517.265625 Z M 429.515625 511.78125 C 430.003906 511.78125 430.402344 511.382812 430.402344 510.890625 C 430.402344 510.402344 430.003906 510.003906 429.515625 510.003906 L 391.210938 510.003906 C 390.71875 510.003906 390.320312 510.402344 390.320312 510.890625 C 390.320312 511.382812 390.71875 511.78125 391.210938 511.78125 Z M 485.730469 413.910156 C 485.277344 414.296875 484.820312 414.695312 484.363281 415.09375 C 484.039062 415.378906 483.734375 415.644531 483.425781 415.910156 C 482.921875 416.351562 482.429688 416.765625 481.96875 417.117188 C 483.0625 417.777344 484.171875 418.414062 485.292969 419.03125 C 485.164062 418.414062 485.109375 417.699219 485.15625 416.90625 C 485.207031 416.042969 485.394531 415.085938 485.722656 414.070312 Z M 508.902344 278.765625 C 503.804688 272.699219 504.695312 265.414062 505.40625 259.5625 C 505.667969 257.425781 505.917969 255.410156 505.832031 253.738281 C 505.726562 251.605469 505.160156 248.855469 504.507812 245.667969 C 504.214844 244.257812 503.90625 242.75 503.617188 241.1875 C 502.773438 240.839844 502.039062 240.40625 501.464844 239.855469 C 498.941406 237.457031 497.375 233.539062 497.375 229.628906 C 497.375 228.664062 497.476562 227.722656 497.664062 226.8125 C 497.816406 226.066406 498.03125 225.34375 498.304688 224.648438 C 458.160156 240.253906 429.613281 279.285156 429.613281 324.878906 C 429.613281 350.765625 438.8125 374.546875 454.113281 393.121094 L 455.738281 392.296875 L 455.742188 392.292969 L 456.863281 383.140625 C 456.863281 383.140625 456.863281 383.140625 456.867188 383.140625 C 456.867188 383.136719 456.863281 383.136719 456.863281 383.132812 C 457.128906 381.152344 463.429688 334.453125 475.644531 319.929688 C 487.058594 306.355469 513.175781 295.347656 517.460938 293.601562 L 517.460938 284.691406 C 514.148438 283.511719 511.203125 281.503906 508.902344 278.765625 Z M 553.503906 218.617188 C 553.9375 219.226562 554.3125 219.90625 554.648438 220.625 C 558.164062 228.109375 556.59375 240.925781 555.667969 246.472656 C 555.652344 246.5625 555.613281 246.640625 555.574219 246.71875 C 556.15625 246.867188 556.746094 247.097656 557.339844 247.453125 C 558.71875 248.285156 559.675781 249.746094 560.105469 251.679688 C 560.207031 252.128906 560.269531 252.597656 560.3125 253.078125 C 563.558594 253.59375 567.074219 254.695312 569.289062 256.988281 C 572.140625 259.941406 572.058594 262.578125 571.984375 264.90625 C 571.929688 266.632812 571.878906 268.121094 573.035156 269.644531 C 574.261719 271.265625 576.140625 271.730469 578.125 272.222656 C 580.535156 272.820312 583.027344 273.441406 584.117188 276.242188 C 585.320312 279.339844 583.839844 282.34375 582.527344 284.996094 C 581.851562 286.371094 581.210938 287.664062 580.964844 288.867188 C 580.484375 291.25 581.128906 293.070312 581.753906 294.828125 C 582.453125 296.789062 583.171875 298.8125 582.207031 301.332031 C 581.222656 303.890625 578.726562 304.75 576.351562 305.390625 C 582.75 309.421875 588.6875 314.089844 592.003906 319.011719 C 599.757812 330.503906 606.226562 360.285156 608.957031 383.109375 C 608.957031 383.109375 608.957031 383.109375 608.957031 383.113281 C 609.035156 383.585938 610.414062 392.515625 609.871094 401.5 C 609.816406 402.386719 609.746094 403.277344 609.652344 404.160156 C 631.136719 384.488281 644.632812 356.234375 644.632812 324.878906 C 644.632812 271.167969 605.039062 226.527344 553.503906 218.617188 Z M 553.503906 218.617188 " fill-opacity="1" fill-rule="nonzero"/><path fill="#6331ac" d="M 268.691406 581.910156 L 268.710938 582.359375 L 267.996094 582.359375 C 268.300781 582.339844 268.550781 582.15625 268.691406 581.910156 Z M 295.222656 536.523438 L 315.660156 552.066406 C 315.535156 552.070312 315.410156 552.054688 315.285156 552.0625 L 312.859375 552.160156 C 312.855469 552.160156 312.855469 552.160156 312.851562 552.160156 C 305.824219 552.445312 300.277344 552.667969 295.941406 555.957031 C 290.421875 560.144531 284.128906 571.621094 285.425781 575.144531 C 285.425781 575.152344 285.433594 575.160156 285.4375 575.167969 C 285.925781 576.472656 286.945312 577.394531 288.324219 577.769531 C 289.8125 578.175781 291.589844 577.847656 292.894531 577.023438 C 293.070312 576.914062 293.265625 576.824219 293.421875 576.699219 C 294.582031 575.734375 295.59375 574.011719 296.574219 572.347656 C 296.789062 571.980469 297 571.625 297.207031 571.285156 C 297.59375 572.960938 298.214844 575.335938 298.96875 577.394531 C 299.203125 578.019531 299.445312 578.617188 299.699219 579.152344 C 286.4375 579.460938 278.019531 574.199219 273.273438 569.640625 C 270.789062 567.253906 269.042969 564.851562 267.875 562.953125 L 267.660156 558.703125 L 264.804688 502.960938 C 264.78125 502.46875 264.3125 502.066406 263.875 502.117188 C 263.382812 502.144531 263.007812 502.5625 263.03125 503.050781 L 265.894531 558.992188 L 267.050781 581.519531 C 267.074219 581.984375 267.453125 582.34375 267.910156 582.359375 L 257.359375 582.359375 L 257.359375 589.125 C 254.6875 589.125 251.621094 589.125 248.261719 589.125 L 248.1875 588.695312 C 248.160156 588.550781 248.132812 588.398438 248.101562 588.238281 C 247.835938 586.769531 247.390625 584.699219 246.292969 582.558594 C 247.351562 582.5625 248.597656 582.351562 249.355469 581.4375 C 250.21875 580.394531 250.164062 578.796875 249.191406 576.699219 C 245.660156 569.070312 230.136719 562.917969 219.640625 562.914062 C 219.628906 562.914062 219.617188 562.914062 219.609375 562.914062 C 216.554688 562.914062 213.746094 563.148438 211.167969 563.59375 C 211.070312 563.523438 210.957031 563.46875 210.828125 563.445312 L 182.816406 558.003906 L 188.460938 506.515625 C 188.511719 506.03125 188.160156 505.589844 187.675781 505.539062 C 187.175781 505.480469 186.75 505.835938 186.695312 506.324219 L 180.964844 558.625 C 180.914062 559.085938 181.222656 559.503906 181.675781 559.59375 L 207.117188 564.535156 C 200.566406 566.488281 196.039062 570.183594 193.816406 575.515625 C 191.472656 581.144531 194.371094 585.894531 196.316406 588.238281 C 196.605469 588.585938 196.878906 588.890625 197.105469 589.125 C 188.378906 589.125 180.839844 589.125 175.996094 589.125 L 166.667969 589.125 C 160.414062 587.886719 155.328125 585.339844 151.542969 581.4375 C 146.007812 575.730469 143.367188 567.363281 143.691406 556.5625 C 144.371094 534.179688 152.34375 490.648438 161.960938 476.382812 C 171.148438 462.761719 191.867188 455.472656 194.507812 454.585938 L 203.796875 443.371094 L 203.796875 443.691406 C 203.796875 444.179688 204.195312 444.578125 204.683594 444.578125 C 205.175781 444.578125 205.574219 444.179688 205.574219 443.691406 L 205.574219 443.179688 L 227.746094 456.015625 L 235.371094 447.410156 L 235.371094 447.75 C 235.371094 448.238281 235.769531 448.636719 236.257812 448.636719 C 236.75 448.636719 237.148438 448.238281 237.148438 447.75 L 237.148438 447.484375 L 244.46875 458.671875 C 247.066406 459.074219 260.667969 461.761719 271.957031 475.1875 C 283.753906 489.21875 294.164062 532.074219 295.222656 536.523438 Z M 244.382812 460.460938 L 244.695312 459.972656 C 244.957031 459.5625 244.839844 459.011719 244.425781 458.746094 C 244.011719 458.480469 243.464844 458.601562 243.199219 459.015625 L 242.890625 459.5 L 236.296875 469.808594 L 229.019531 457.257812 L 228.695312 456.703125 C 228.523438 456.40625 228.1875 456.226562 227.859375 456.261719 C 227.519531 456.289062 227.222656 456.507812 227.101562 456.824219 L 226.824219 457.535156 L 221.226562 471.867188 L 196.339844 455.164062 L 195.523438 454.613281 C 195.117188 454.339844 194.5625 454.449219 194.292969 454.859375 C 194.019531 455.261719 194.128906 455.816406 194.535156 456.089844 L 194.902344 456.332031 L 221.15625 473.957031 C 221.304688 474.058594 221.476562 474.109375 221.648438 474.109375 C 221.738281 474.109375 221.828125 474.097656 221.914062 474.070312 C 222.171875 473.988281 222.378906 473.796875 222.476562 473.542969 L 228.085938 459.1875 L 235.492188 471.960938 C 235.648438 472.226562 235.929688 472.394531 236.242188 472.402344 C 236.535156 472.378906 236.839844 472.253906 237.007812 471.992188 Z M 229.90625 442.386719 C 233.144531 442.386719 235.78125 440.257812 235.78125 437.640625 C 235.78125 437.171875 235.671875 436.730469 235.515625 436.304688 C 235.3125 435.753906 235 435.242188 234.578125 434.792969 C 233.503906 433.648438 231.820312 432.894531 229.90625 432.894531 C 229.179688 432.894531 228.492188 433.015625 227.851562 433.210938 C 227.253906 433.390625 226.710938 433.652344 226.222656 433.972656 C 224.925781 434.828125 224.078125 436.101562 224.042969 437.550781 C 224.042969 437.582031 224.03125 437.609375 224.03125 437.640625 C 224.03125 438.246094 224.1875 438.816406 224.441406 439.351562 C 225.292969 441.121094 227.414062 442.386719 229.90625 442.386719 Z M 504.484375 421.519531 C 503.527344 422.609375 502.179688 423.226562 500.777344 423.226562 C 500.730469 423.226562 500.6875 423.222656 500.644531 423.222656 C 499.46875 423.191406 498.421875 422.730469 497.835938 421.992188 C 497.808594 421.953125 497.800781 421.914062 497.773438 421.875 C 496.988281 422.484375 495.945312 422.839844 494.832031 422.839844 C 494.710938 422.839844 494.589844 422.835938 494.46875 422.828125 C 493.226562 422.746094 492.15625 422.234375 491.523438 421.433594 C 491.523438 421.429688 491.523438 421.429688 491.523438 421.425781 C 490.742188 421.992188 489.832031 422.328125 488.929688 422.328125 C 488.71875 422.328125 488.511719 422.3125 488.304688 422.277344 C 487.898438 422.210938 487.535156 422.054688 487.191406 421.859375 C 487.183594 421.851562 487.171875 421.847656 487.164062 421.839844 L 487.09375 423.402344 L 509.003906 423.402344 C 507.429688 422.734375 506.074219 421.890625 505.007812 420.90625 C 504.820312 421.136719 504.644531 421.339844 504.484375 421.519531 Z M 578.925781 431.988281 L 579.433594 431.941406 C 579.675781 431.921875 579.898438 431.800781 580.050781 431.613281 C 580.203125 431.421875 580.273438 431.175781 580.238281 430.933594 L 579.441406 425.136719 C 578.863281 425.183594 578.265625 425.222656 577.667969 425.265625 C 574.523438 425.488281 571.1875 425.636719 567.609375 425.722656 C 566.570312 425.746094 565.332031 425.757812 563.925781 425.757812 C 559.070312 425.757812 552.253906 425.628906 545.132812 425.492188 C 542.015625 425.433594 538.746094 425.371094 535.472656 425.3125 C 535.96875 425.957031 536.300781 426.71875 536.382812 427.550781 C 536.503906 428.738281 536.140625 429.910156 535.417969 430.84375 C 535.347656 430.933594 535.292969 431.035156 535.214844 431.121094 C 534.429688 431.992188 533.339844 432.5 532.179688 432.601562 C 536.527344 432.625 540.894531 432.640625 545.152344 432.640625 C 558.839844 432.640625 571.375 432.496094 578.152344 432.058594 C 578.414062 432.039062 578.667969 432.015625 578.925781 431.988281 Z M 573.414062 394.289062 L 520.5625 402.4375 C 514.460938 398.984375 509.050781 396.363281 500.480469 396.363281 C 500.476562 396.363281 500.46875 396.363281 500.460938 396.363281 C 496.261719 396.367188 492.027344 397.730469 488.21875 399.835938 C 488.1875 399.855469 488.152344 399.875 488.117188 399.890625 L 488.84375 383.289062 C 488.847656 383.1875 488.820312 383.085938 488.789062 382.992188 C 488.78125 382.964844 488.785156 382.9375 488.773438 382.914062 C 488.726562 382.800781 488.660156 382.699219 488.570312 382.617188 C 488.566406 382.613281 488.566406 382.605469 488.5625 382.605469 C 488.496094 382.542969 481.933594 376.246094 481.933594 366.269531 C 481.933594 356.15625 491.988281 339.015625 492.089844 338.84375 C 492.339844 338.421875 492.199219 337.878906 491.777344 337.628906 C 491.359375 337.382812 490.8125 337.519531 490.5625 337.941406 C 490.136719 338.660156 480.15625 355.671875 480.15625 366.269531 C 480.15625 374.144531 483.863281 379.800781 485.957031 382.363281 C 486.417969 382.925781 486.804688 383.347656 487.050781 383.601562 L 487.027344 384.140625 L 457.746094 384.140625 C 457.492188 384.140625 457.246094 384.03125 457.078125 383.835938 C 456.914062 383.648438 456.835938 383.390625 456.867188 383.140625 C 456.867188 383.140625 456.863281 383.136719 456.863281 383.136719 C 457.128906 381.152344 463.429688 334.453125 475.644531 319.933594 C 487.058594 306.355469 513.175781 295.347656 517.460938 293.605469 C 517.753906 293.484375 517.945312 293.40625 518.023438 293.378906 C 518.453125 293.203125 518.953125 293.402344 519.152344 293.824219 C 519.160156 293.839844 519.191406 293.902344 519.238281 293.980469 C 519.683594 294.78125 522.042969 298.429688 528.222656 299.050781 C 537.445312 299.988281 546.273438 294.046875 548.289062 292.582031 C 548.558594 292.386719 548.714844 292.265625 548.730469 292.257812 C 548.976562 292.0625 549.308594 292.015625 549.597656 292.121094 C 549.667969 292.148438 549.839844 292.214844 550.066406 292.304688 C 552.523438 293.265625 563.695312 297.773438 574.265625 304.113281 C 574.964844 304.53125 575.660156 304.957031 576.351562 305.390625 C 582.75 309.421875 588.683594 314.089844 592.003906 319.011719 C 599.753906 330.503906 606.222656 360.285156 608.957031 383.109375 C 608.878906 382.625 608.417969 382.296875 607.941406 382.375 C 607.503906 382.445312 607.210938 382.820312 607.207031 383.25 L 573.699219 383.25 L 573.664062 383.082031 C 573.664062 383.082031 573.664062 383.078125 573.664062 383.078125 L 573.523438 382.363281 L 564.890625 338.222656 C 564.796875 337.742188 564.324219 337.425781 563.851562 337.523438 C 563.367188 337.617188 563.054688 338.082031 563.148438 338.566406 L 571.917969 383.390625 L 571.921875 383.414062 C 571.921875 383.414062 571.921875 383.417969 571.921875 383.421875 L 574.015625 394.199219 Z M 555.996094 296.75 C 556.308594 296.386719 556.464844 296.160156 556.484375 296.136719 C 556.75 295.722656 556.632812 295.179688 556.222656 294.914062 C 555.8125 294.648438 555.265625 294.761719 554.996094 295.167969 C 554.992188 295.175781 554.792969 295.464844 554.289062 295.996094 C 553.453125 296.886719 551.761719 298.457031 548.679688 300.542969 C 544.707031 303.234375 536.53125 307.574219 526.46875 306.398438 C 518.746094 305.492188 513.941406 299.90625 512.367188 297.769531 C 511.996094 297.265625 511.800781 296.953125 511.792969 296.9375 C 511.539062 296.519531 510.992188 296.382812 510.574219 296.636719 C 510.152344 296.890625 510.019531 297.433594 510.269531 297.855469 C 510.300781 297.910156 510.460938 298.164062 510.71875 298.53125 C 512.203125 300.65625 517.386719 307.121094 526.261719 308.160156 C 527.496094 308.308594 528.703125 308.375 529.875 308.375 C 538.835938 308.375 545.984375 304.515625 549.675781 302.015625 C 553.433594 299.464844 555.234375 297.640625 555.996094 296.75 Z M 348.855469 397.160156 C 351.5 398.6875 354.308594 398.996094 356.769531 398.019531 C 361.925781 395.976562 363.984375 388.917969 361.355469 382.285156 C 360.070312 379.035156 357.867188 376.382812 355.15625 374.816406 C 353.527344 373.875 351.835938 373.398438 350.203125 373.398438 C 349.183594 373.398438 348.1875 373.582031 347.242188 373.957031 C 344.78125 374.929688 342.941406 377.078125 342.0625 380 C 341.160156 383 341.371094 386.441406 342.65625 389.691406 C 343.941406 392.9375 346.144531 395.589844 348.855469 397.160156 Z M 436.230469 431.464844 C 436.324219 431.734375 436.28125 432.035156 436.113281 432.269531 C 435.945312 432.503906 435.675781 432.644531 435.390625 432.644531 L 314.367188 432.644531 C 312.070312 432.644531 310.019531 431.1875 309.265625 429.015625 L 276.035156 333.574219 C 275.652344 332.476562 275.820312 331.304688 276.492188 330.359375 C 277.167969 329.410156 278.21875 328.867188 279.382812 328.867188 L 399.878906 328.867188 C 400.253906 328.867188 400.589844 329.109375 400.714844 329.464844 L 401.125 330.644531 L 436.023438 430.867188 Z M 341.003906 390.34375 C 342.4375 393.964844 344.910156 396.929688 347.964844 398.695312 C 349.871094 399.796875 351.867188 400.355469 353.804688 400.355469 C 355.046875 400.355469 356.265625 400.128906 357.421875 399.667969 C 363.488281 397.265625 365.996094 389.175781 363.007812 381.628906 C 361.574219 378.011719 359.101562 375.046875 356.042969 373.277344 C 352.917969 371.472656 349.5625 371.128906 346.585938 372.304688 C 343.609375 373.484375 341.398438 376.035156 340.359375 379.492188 C 339.339844 382.871094 339.570312 386.722656 341.003906 390.34375 Z M 676.007812 534.921875 L 641.820312 506.078125 L 629.453125 516.511719 C 628.097656 517.660156 626.503906 518.234375 624.910156 518.234375 C 623.320312 518.234375 621.726562 517.660156 620.371094 516.511719 L 608.003906 506.078125 L 573.816406 534.921875 L 572.785156 535.792969 C 572.664062 535.894531 572.523438 535.945312 572.378906 535.976562 C 573.503906 537.667969 575.425781 538.789062 577.605469 538.789062 L 672.222656 538.789062 C 674.402344 538.789062 676.324219 537.667969 677.449219 535.976562 C 677.304688 535.945312 677.164062 535.894531 677.042969 535.792969 Z M 672.21875 468.441406 L 577.605469 468.441406 C 574.144531 468.441406 571.324219 471.261719 571.324219 474.722656 L 571.324219 532.507812 C 571.324219 533.179688 571.460938 533.816406 571.65625 534.425781 L 573.167969 533.152344 L 606.628906 504.921875 L 573.101562 476.632812 L 571.640625 475.402344 C 571.265625 475.085938 571.21875 474.527344 571.535156 474.152344 C 571.851562 473.773438 572.414062 473.730469 572.785156 474.046875 L 573.140625 474.34375 L 621.515625 515.15625 C 623.582031 516.898438 626.25 516.894531 628.3125 515.15625 L 676.6875 474.34375 L 677.042969 474.046875 C 677.414062 473.730469 677.976562 473.773438 678.292969 474.152344 C 678.609375 474.527344 678.558594 475.085938 678.1875 475.402344 L 676.726562 476.632812 L 643.199219 504.921875 L 676.660156 533.152344 L 678.171875 534.425781 C 678.367188 533.816406 678.5 533.179688 678.5 532.507812 L 678.5 474.722656 C 678.5 471.261719 675.683594 468.441406 672.21875 468.441406 Z M 672.21875 468.441406 " fill-opacity="1" fill-rule="nonzero"/><g clip-path="url(#cc082c4a27)"><path fill="#000000" d="M 197.835938 435.519531 C 199.964844 435.519531 201.980469 435.035156 203.796875 434.1875 L 203.796875 443.691406 C 203.796875 444.179688 204.191406 444.578125 204.683594 444.578125 C 205.175781 444.578125 205.570312 444.179688 205.570312 443.691406 L 205.570312 433.210938 C 206.378906 432.683594 207.136719 432.078125 207.820312 431.402344 C 209.445312 433.691406 214.289062 438.96875 224.441406 439.351562 C 224.1875 438.820312 224.03125 438.246094 224.03125 437.640625 C 224.03125 437.609375 224.042969 437.578125 224.042969 437.550781 C 214.324219 437.019531 210.105469 431.6875 209.027344 430.027344 C 210.902344 427.621094 212.03125 424.605469 212.03125 421.324219 C 212.03125 419.617188 211.714844 417.988281 211.160156 416.472656 L 213.074219 402.839844 C 215.714844 402.246094 225.652344 399.46875 230.363281 390.511719 C 232.875 390.605469 243.808594 391.558594 248.636719 400.867188 C 248.3125 402.695312 247.953125 404.464844 247.617188 406.101562 C 246.949219 409.359375 246.371094 412.175781 246.257812 414.441406 C 246.167969 416.265625 246.421875 418.355469 246.691406 420.570312 C 247.398438 426.367188 248.199219 432.9375 243.601562 438.414062 C 240.441406 442.171875 235.957031 444.464844 230.96875 444.863281 C 226.789062 445.207031 220.320312 444.332031 213.363281 438.3125 C 212.992188 437.992188 212.433594 438.035156 212.113281 438.40625 C 211.792969 438.777344 211.832031 439.335938 212.203125 439.65625 C 218.75 445.320312 224.929688 446.699219 229.40625 446.699219 C 230.003906 446.699219 230.574219 446.675781 231.109375 446.632812 C 232.574219 446.515625 234 446.238281 235.371094 445.832031 L 235.371094 447.75 C 235.371094 448.238281 235.765625 448.636719 236.257812 448.636719 C 236.75 448.636719 237.144531 448.238281 237.144531 447.75 L 237.144531 445.214844 C 240.15625 444.007812 242.835938 442.089844 244.960938 439.554688 C 246.367188 437.882812 247.304688 436.117188 247.929688 434.316406 C 252.925781 432.113281 256.421875 427.125 256.421875 421.324219 C 256.421875 415.902344 253.363281 411.183594 248.882812 408.792969 C 249.03125 408.046875 249.191406 407.265625 249.359375 406.460938 C 249.949219 403.570312 250.621094 400.300781 251.050781 396.933594 C 251.3125 394.890625 251.835938 387.902344 247.71875 383.621094 C 247.253906 383.136719 246.730469 382.6875 246.191406 382.25 C 243.410156 376.378906 239.125 372.328125 227.46875 371.605469 C 222.539062 371.300781 216.707031 371.589844 211.589844 373.589844 C 209.90625 373.582031 199.484375 373.917969 194.894531 383.277344 C 190.683594 391.863281 192.789062 404.484375 193.453125 407.828125 C 187.765625 409.679688 183.640625 415.027344 183.640625 421.324219 C 183.640625 429.152344 190.007812 435.519531 197.835938 435.519531 Z M 254.648438 421.324219 C 254.648438 425.855469 252.199219 429.816406 248.566406 431.984375 C 249.375 427.976562 248.886719 423.902344 248.453125 420.355469 C 248.191406 418.21875 247.945312 416.203125 248.03125 414.535156 C 248.089844 413.40625 248.277344 412.09375 248.535156 410.644531 C 252.1875 412.808594 254.648438 416.78125 254.648438 421.324219 Z M 203.441406 382.472656 C 205.507812 378.964844 208.582031 376.730469 212.046875 375.335938 C 212.097656 375.320312 212.140625 375.300781 212.183594 375.277344 C 217.03125 373.363281 222.628906 373.085938 227.359375 373.375 C 236.132812 373.921875 240.304688 376.335938 242.945312 380.132812 C 238.625 377.820312 233.03125 376.566406 226.988281 376.707031 C 219.6875 376.878906 213.515625 379.050781 210.476562 382.519531 C 204.175781 389.710938 203.730469 403.769531 203.765625 408.445312 C 202.214844 407.726562 200.519531 407.285156 198.734375 407.175781 C 198.796875 403.597656 199.3125 389.472656 203.441406 382.472656 Z M 197.835938 408.90625 C 204.683594 408.90625 210.253906 414.476562 210.253906 421.324219 C 210.253906 428.171875 204.683594 433.742188 197.835938 433.742188 C 190.988281 433.742188 185.414062 428.171875 185.414062 421.324219 C 185.414062 414.476562 190.988281 408.90625 197.835938 408.90625 Z M 224.523438 585.039062 C 225.449219 583.863281 224.78125 581.613281 222.539062 578.351562 C 220.199219 574.949219 214.058594 571.066406 213.625 570.792969 C 213.613281 570.785156 213.585938 570.769531 213.585938 570.769531 C 213.167969 570.511719 213.039062 569.964844 213.296875 569.546875 C 213.554688 569.128906 214.101562 569 214.519531 569.257812 C 214.570312 569.289062 214.828125 569.453125 215.222656 569.710938 C 217.039062 570.898438 221.851562 574.210938 224.003906 577.34375 C 225.386719 579.355469 226.957031 582.054688 226.644531 584.339844 C 226.730469 584.378906 226.8125 584.421875 226.882812 584.488281 C 227.398438 584.992188 228.273438 585.261719 229.171875 585.203125 C 229.898438 585.152344 230.515625 584.882812 230.832031 584.484375 C 231.511719 583.617188 231.496094 580.816406 228.554688 577.003906 C 225.65625 573.25 219.976562 569.125 219.917969 569.085938 C 219.742188 568.957031 219.640625 568.777344 219.589844 568.585938 C 219.527344 568.335938 219.558594 568.066406 219.71875 567.84375 C 220.003906 567.449219 220.558594 567.355469 220.960938 567.644531 C 221.007812 567.679688 221.285156 567.882812 221.707031 568.203125 C 223.390625 569.484375 227.519531 572.757812 229.960938 575.917969 C 232.425781 579.113281 233.179688 581.898438 232.910156 583.820312 C 233.542969 584.453125 234.398438 584.808594 235.15625 584.671875 C 235.824219 584.558594 236.316406 584.097656 236.585938 583.335938 C 237.105469 581.851562 236.972656 578.957031 234.875 575.683594 C 232.019531 571.226562 226.753906 568.320312 226.699219 568.289062 C 226.441406 568.148438 226.296875 567.894531 226.261719 567.621094 C 226.234375 567.441406 226.25 567.253906 226.34375 567.085938 C 226.578125 566.652344 227.125 566.496094 227.550781 566.730469 C 227.777344 566.855469 233.089844 569.792969 236.210938 574.496094 C 236.265625 574.574219 236.320312 574.648438 236.371094 574.726562 C 236.839844 575.457031 237.199219 576.167969 237.507812 576.859375 C 238.808594 579.792969 238.8125 582.347656 238.261719 583.925781 C 237.777344 585.296875 236.753906 586.203125 235.449219 586.425781 C 235.242188 586.460938 235.035156 586.476562 234.824219 586.476562 C 233.921875 586.476562 233.011719 586.140625 232.230469 585.574219 C 232.230469 585.578125 232.230469 585.578125 232.226562 585.582031 C 231.601562 586.382812 230.53125 586.890625 229.292969 586.976562 C 229.167969 586.984375 229.046875 586.988281 228.921875 586.988281 C 227.8125 586.988281 226.765625 586.632812 225.980469 586.027344 C 225.953125 586.0625 225.945312 586.105469 225.917969 586.140625 C 225.332031 586.878906 224.285156 587.339844 223.109375 587.371094 C 223.066406 587.371094 223.023438 587.371094 222.980469 587.371094 C 221.574219 587.371094 220.226562 586.753906 219.269531 585.667969 C 218.949219 585.304688 218.566406 584.835938 218.125 584.296875 C 216.507812 582.320312 214.199219 579.519531 211.730469 577.859375 C 211.257812 577.542969 210.777344 577.253906 210.296875 577.035156 C 210.207031 576.992188 210.132812 576.929688 210.0625 576.867188 C 209.792969 576.613281 209.691406 576.214844 209.855469 575.859375 C 210.054688 575.414062 210.582031 575.21875 211.027344 575.417969 C 211.046875 575.425781 211.066406 575.441406 211.085938 575.449219 C 214.4375 576.988281 217.480469 580.707031 219.496094 583.171875 C 219.921875 583.691406 220.292969 584.144531 220.601562 584.496094 C 221.476562 585.488281 222.53125 585.644531 223.0625 585.59375 C 223.78125 585.574219 224.3125 585.300781 224.523438 585.039062 Z M 226.222656 433.972656 C 224.953125 432.253906 224.585938 430.238281 224.660156 428.960938 C 224.679688 428.660156 224.851562 428.386719 225.117188 428.238281 C 225.382812 428.089844 225.707031 428.089844 225.972656 428.234375 C 229.90625 430.398438 238.621094 430.179688 238.707031 430.179688 C 238.980469 430.191406 239.269531 430.304688 239.441406 430.535156 C 239.613281 430.765625 239.664062 431.066406 239.574219 431.339844 C 239.078125 432.878906 237.734375 435.140625 235.515625 436.304688 C 235.3125 435.753906 234.996094 435.242188 234.578125 434.792969 C 235.960938 434.125 236.863281 432.886719 237.363281 431.960938 C 234.972656 431.9375 230.019531 431.714844 226.550781 430.4375 C 226.707031 431.25 227.070312 432.292969 227.851562 433.210938 C 227.253906 433.390625 226.710938 433.652344 226.222656 433.972656 Z M 242.40625 408.875 C 242.894531 408.898438 243.273438 409.3125 243.25 409.804688 L 243.078125 413.460938 C 243.058594 413.9375 242.664062 414.304688 242.195312 414.304688 C 242.179688 414.304688 242.164062 414.304688 242.152344 414.304688 C 241.664062 414.28125 241.285156 413.867188 241.304688 413.375 L 241.476562 409.71875 C 241.5 409.230469 241.867188 408.796875 242.40625 408.875 Z M 227.636719 407.964844 C 228.125 407.988281 228.503906 408.402344 228.480469 408.890625 L 228.3125 412.550781 C 228.289062 413.023438 227.894531 413.394531 227.425781 413.394531 C 227.410156 413.394531 227.398438 413.394531 227.382812 413.394531 C 226.894531 413.371094 226.515625 412.957031 226.539062 412.464844 L 226.707031 408.808594 C 226.730469 408.320312 227.113281 407.886719 227.636719 407.964844 Z M 237.636719 422.410156 C 237.917969 422.011719 237.910156 421.433594 237.613281 420.699219 C 234.945312 414.109375 235.566406 410.488281 235.59375 410.339844 C 235.683594 409.855469 236.140625 409.550781 236.628906 409.625 C 237.109375 409.714844 237.429688 410.175781 237.34375 410.65625 C 237.328125 410.734375 236.828125 414.027344 239.257812 420.03125 C 239.929688 421.691406 239.535156 422.796875 239.085938 423.433594 C 238.3125 424.53125 236.714844 425.144531 234.664062 425.144531 C 234.515625 425.144531 234.359375 425.140625 234.203125 425.132812 C 233.710938 425.113281 233.332031 424.699219 233.351562 424.207031 C 233.375 423.71875 233.796875 423.378906 234.277344 423.359375 C 235.890625 423.4375 237.171875 423.066406 237.636719 422.410156 Z M 240.21875 404.222656 C 239.753906 404.367188 239.253906 404.113281 239.101562 403.648438 C 238.953125 403.183594 239.203125 402.6875 239.667969 402.535156 C 241.011719 402.089844 244.105469 401.980469 246.171875 404.75 C 246.46875 405.140625 246.386719 405.699219 245.992188 405.992188 C 245.835938 406.109375 245.648438 406.167969 245.464844 406.167969 C 245.191406 406.167969 244.925781 406.042969 244.75 405.8125 C 242.941406 403.394531 240.328125 404.1875 240.21875 404.222656 Z M 224.183594 405.558594 C 224.007812 405.742188 223.773438 405.832031 223.542969 405.832031 C 223.320312 405.832031 223.097656 405.75 222.925781 405.585938 C 222.574219 405.246094 222.5625 404.683594 222.902344 404.332031 C 226.261719 400.828125 230.429688 402.183594 230.609375 402.242188 C 231.074219 402.398438 231.324219 402.902344 231.167969 403.367188 C 231.011719 403.832031 230.507812 404.078125 230.046875 403.925781 C 229.910156 403.878906 226.746094 402.890625 224.183594 405.558594 Z M 535.347656 589.125 L 435.105469 589.125 C 435.628906 588.945312 436.101562 588.617188 436.429688 588.15625 C 436.933594 587.445312 437.066406 586.53125 436.78125 585.707031 L 429.144531 563.605469 L 428.53125 561.828125 L 419.859375 536.742188 C 419.734375 536.382812 419.398438 536.144531 419.019531 536.144531 L 382.378906 536.144531 C 382.089844 536.144531 381.820312 536.285156 381.652344 536.519531 C 381.488281 536.75 381.445312 537.050781 381.539062 537.324219 L 390.007812 561.828125 L 390.621094 563.605469 L 396.871094 581.679688 C 396.945312 581.898438 396.910156 582.128906 396.777344 582.316406 C 396.765625 582.335938 396.746094 582.339844 396.734375 582.355469 C 396.597656 582.511719 396.417969 582.613281 396.207031 582.613281 L 359.503906 582.613281 C 358.332031 582.613281 357.304688 583.21875 356.710938 584.132812 C 356.367188 584.65625 356.164062 585.28125 356.164062 585.949219 C 356.164062 586.464844 356.292969 586.949219 356.5 587.386719 C 356.917969 588.253906 357.695312 588.90625 358.640625 589.164062 L 257.359375 589.164062 L 257.359375 589.125 C 254.6875 589.125 251.621094 589.125 248.265625 589.125 C 247.230469 589.125 246.175781 589.125 245.089844 589.125 C 232.675781 589.125 217.136719 589.125 203.4375 589.125 C 202.023438 589.125 200.625 589.125 199.253906 589.125 C 199.253906 588.871094 199.15625 588.621094 198.949219 588.445312 C 198.691406 588.226562 192.632812 582.96875 195.457031 576.195312 C 198.59375 568.667969 206.945312 564.6875 219.609375 564.6875 C 219.617188 564.6875 219.628906 564.6875 219.636719 564.6875 C 229.355469 564.691406 244.457031 570.699219 247.582031 577.445312 C 248.210938 578.808594 248.359375 579.847656 247.984375 580.304688 C 247.492188 580.90625 246.019531 580.832031 245.148438 580.675781 C 245.59375 581.300781 245.972656 581.929688 246.292969 582.554688 C 247.351562 582.5625 248.597656 582.351562 249.355469 581.4375 C 250.21875 580.390625 250.164062 578.796875 249.191406 576.699219 C 245.660156 569.066406 230.136719 562.917969 219.640625 562.914062 C 219.628906 562.914062 219.617188 562.914062 219.609375 562.914062 C 216.554688 562.914062 213.746094 563.148438 211.167969 563.59375 C 211.070312 563.523438 210.957031 563.46875 210.828125 563.445312 L 182.816406 558.003906 L 188.460938 506.515625 C 188.511719 506.027344 188.160156 505.589844 187.675781 505.535156 C 187.175781 505.480469 186.75 505.835938 186.695312 506.320312 L 180.964844 558.625 C 180.914062 559.082031 181.222656 559.503906 181.675781 559.59375 L 207.117188 564.53125 C 200.566406 566.484375 196.039062 570.179688 193.816406 575.511719 C 191.472656 581.144531 194.371094 585.894531 196.316406 588.234375 C 196.605469 588.585938 196.878906 588.886719 197.105469 589.125 C 188.378906 589.125 180.839844 589.125 175.996094 589.125 L 117.265625 589.125 C 114.203125 589.125 111.71875 591.609375 111.71875 594.671875 C 111.71875 597.734375 114.203125 600.21875 117.265625 600.21875 L 535.347656 600.21875 C 538.410156 600.21875 540.894531 597.734375 540.894531 594.671875 C 540.894531 591.609375 538.410156 589.125 535.347656 589.125 Z M 434.230469 587.515625 L 359.503906 587.515625 C 358.640625 587.515625 357.941406 586.8125 357.941406 585.953125 C 357.941406 585.089844 358.640625 584.390625 359.503906 584.390625 L 396.207031 584.390625 C 397.007812 584.390625 397.761719 584 398.222656 583.347656 C 398.691406 582.695312 398.808594 581.859375 398.546875 581.101562 L 383.621094 537.921875 L 418.386719 537.921875 L 435.101562 586.289062 C 435.203125 586.574219 435.160156 586.878906 434.984375 587.125 C 434.808594 587.375 434.535156 587.515625 434.230469 587.515625 Z M 244.425781 458.746094 C 244.839844 459.011719 244.957031 459.558594 244.695312 459.972656 L 244.382812 460.460938 L 237.007812 471.992188 C 236.839844 472.25 236.53125 472.375 236.238281 472.398438 C 235.929688 472.394531 235.644531 472.226562 235.488281 471.957031 L 228.082031 459.183594 L 222.476562 473.539062 C 222.378906 473.792969 222.171875 473.984375 221.914062 474.066406 C 221.828125 474.089844 221.738281 474.105469 221.648438 474.105469 C 221.472656 474.105469 221.300781 474.054688 221.152344 473.953125 L 194.898438 456.332031 L 194.53125 456.085938 C 194.125 455.8125 194.019531 455.261719 194.292969 454.855469 C 194.5625 454.445312 195.117188 454.339844 195.523438 454.613281 L 196.339844 455.160156 L 221.222656 471.863281 L 226.820312 457.53125 L 227.097656 456.824219 C 227.222656 456.503906 227.519531 456.285156 227.859375 456.257812 C 228.183594 456.226562 228.523438 456.402344 228.695312 456.699219 L 229.015625 457.253906 L 236.292969 469.804688 L 242.886719 459.496094 L 243.195312 459.011719 C 243.460938 458.601562 244.011719 458.480469 244.425781 458.746094 Z M 267.660156 558.703125 L 267.878906 562.953125 L 268.824219 581.429688 C 268.832031 581.609375 268.773438 581.765625 268.691406 581.910156 C 268.550781 582.15625 268.300781 582.339844 267.996094 582.359375 C 267.988281 582.359375 267.984375 582.359375 267.980469 582.359375 C 267.96875 582.363281 267.953125 582.363281 267.933594 582.363281 C 267.925781 582.363281 267.917969 582.359375 267.910156 582.359375 C 267.453125 582.34375 267.074219 581.988281 267.050781 581.519531 L 265.894531 558.992188 L 263.03125 503.050781 C 263.007812 502.5625 263.382812 502.144531 263.875 502.117188 C 264.3125 502.066406 264.78125 502.46875 264.804688 502.960938 Z M 348.570312 471.707031 C 348.910156 470.816406 349.773438 470.21875 350.726562 470.21875 L 352.5625 470.21875 L 353.238281 468.441406 L 350.726562 468.441406 C 349.042969 468.441406 347.507812 469.5 346.910156 471.074219 L 316.105469 552.074219 C 315.957031 552.074219 315.8125 552.0625 315.660156 552.066406 C 315.53125 552.070312 315.410156 552.054688 315.28125 552.058594 L 312.859375 552.160156 C 312.855469 552.160156 312.851562 552.160156 312.851562 552.160156 C 305.824219 552.445312 300.273438 552.667969 295.941406 555.957031 C 290.421875 560.144531 284.128906 571.617188 285.421875 575.140625 C 285.425781 575.152344 285.433594 575.160156 285.433594 575.167969 C 285.921875 576.472656 286.945312 577.394531 288.320312 577.765625 C 289.8125 578.171875 291.589844 577.847656 292.894531 577.023438 C 293.070312 576.914062 293.265625 576.824219 293.421875 576.695312 C 294.582031 575.734375 295.59375 574.011719 296.574219 572.34375 C 296.789062 571.980469 297 571.621094 297.203125 571.285156 C 297.59375 572.957031 298.210938 575.335938 298.96875 577.390625 C 299.199219 578.019531 299.441406 578.617188 299.699219 579.152344 C 300.101562 579.992188 300.527344 580.695312 300.976562 581.121094 C 301.636719 581.742188 302.433594 582.148438 303.265625 582.359375 L 305.578125 582.359375 C 305.683594 582.332031 305.792969 582.3125 305.898438 582.277344 C 306.726562 581.984375 307.382812 581.441406 307.859375 580.742188 C 308.457031 581.519531 309.214844 582.085938 310.054688 582.359375 L 312.304688 582.359375 C 313.1875 582.066406 313.984375 581.4375 314.597656 580.488281 C 314.769531 580.21875 314.929688 579.925781 315.074219 579.613281 C 315.828125 580.558594 316.824219 581.175781 317.917969 581.3125 C 318.066406 581.332031 318.214844 581.339844 318.363281 581.339844 C 319.679688 581.339844 320.894531 580.605469 321.753906 579.28125 C 323.1875 577.054688 323.648438 573.261719 323.203125 567.347656 C 323.171875 566.9375 323.128906 566.546875 323.085938 566.160156 C 323.613281 566.921875 324.1875 567.914062 324.71875 569.21875 C 325.0625 570.058594 325.304688 570.910156 325.539062 571.734375 C 325.996094 573.351562 326.429688 574.875 327.535156 576.179688 C 328.285156 577.070312 329.984375 577.828125 331.664062 577.476562 C 333.023438 577.191406 334.015625 576.222656 334.449219 574.753906 C 335.261719 572.019531 335.339844 567.847656 333.546875 563.605469 L 331.601562 563.605469 C 333.535156 567.652344 333.507812 571.675781 332.746094 574.246094 C 332.496094 575.089844 332.011719 575.589844 331.296875 575.738281 C 330.316406 575.953125 329.246094 575.453125 328.890625 575.03125 C 328.03125 574.019531 327.667969 572.738281 327.246094 571.25 C 327 570.378906 326.742188 569.480469 326.363281 568.546875 C 325.335938 566.019531 324.136719 564.476562 323.296875 563.605469 L 320.894531 563.605469 C 321.113281 564.699219 321.316406 566.019531 321.429688 567.480469 C 321.839844 572.914062 321.457031 576.457031 320.257812 578.316406 C 319.671875 579.222656 318.949219 579.660156 318.132812 579.550781 C 317.164062 579.429688 316.269531 578.546875 315.800781 577.300781 C 316.25 575.125 316.324219 572.257812 316.042969 568.558594 C 315.910156 566.761719 315.582031 564.992188 315.242188 563.507812 C 315.480469 563.570312 315.726562 563.605469 315.980469 563.605469 L 317.046875 563.605469 L 317.722656 561.828125 L 315.980469 561.828125 C 315.589844 561.828125 315.242188 561.644531 315.023438 561.324219 C 314.800781 561.007812 314.753906 560.613281 314.890625 560.253906 Z M 313.363281 559.289062 C 313.289062 559.292969 313.210938 559.292969 313.136719 559.316406 C 312.671875 559.472656 312.421875 559.976562 312.574219 560.441406 C 312.589844 560.484375 313.972656 564.648438 314.277344 568.695312 C 314.6875 574.125 314.304688 577.667969 313.109375 579.523438 C 312.523438 580.433594 311.789062 580.859375 310.984375 580.761719 C 310.015625 580.640625 309.121094 579.757812 308.652344 578.511719 C 309.050781 575.082031 308.550781 565.828125 306.496094 560.511719 C 306.320312 560.050781 305.800781 559.832031 305.347656 560.003906 C 304.890625 560.179688 304.664062 560.695312 304.839844 561.152344 C 306.765625 566.140625 307.304688 575.40625 306.863281 578.523438 C 306.71875 579.5625 306.167969 580.300781 305.3125 580.601562 C 304.3125 580.949219 303.058594 580.640625 302.199219 579.828125 C 300.824219 578.53125 299.207031 572.449219 298.511719 568.917969 C 298.507812 568.910156 298.5 568.90625 298.5 568.898438 C 298.5 568.890625 298.5 568.878906 298.5 568.871094 C 297.828125 566.273438 297.097656 562.441406 297.089844 562.402344 C 297 561.921875 296.539062 561.613281 296.050781 561.695312 C 295.570312 561.789062 295.253906 562.253906 295.34375 562.734375 C 295.375 562.882812 296.023438 566.277344 296.671875 568.886719 C 296.144531 569.585938 295.609375 570.484375 295.042969 571.445312 C 294.183594 572.90625 293.207031 574.566406 292.289062 575.328125 C 291.40625 576.058594 289.933594 576.363281 288.785156 576.050781 C 287.945312 575.828125 287.375 575.316406 287.089844 574.53125 C 286.242188 572.226562 291.695312 561.402344 297.011719 557.371094 C 300.90625 554.417969 306.210938 554.203125 312.925781 553.9375 L 315.363281 553.832031 C 315.386719 553.832031 315.410156 553.835938 315.4375 553.832031 Z M 431.9375 505.40625 L 393.632812 505.40625 C 393.140625 505.40625 392.746094 505.007812 392.746094 504.519531 C 392.746094 504.027344 393.140625 503.628906 393.632812 503.628906 L 431.9375 503.628906 C 432.429688 503.628906 432.824219 504.027344 432.824219 504.519531 C 432.824219 505.007812 432.429688 505.40625 431.9375 505.40625 Z M 429.515625 511.78125 L 391.210938 511.78125 C 390.71875 511.78125 390.320312 511.382812 390.320312 510.890625 C 390.320312 510.402344 390.71875 510.003906 391.210938 510.003906 L 429.515625 510.003906 C 430.003906 510.003906 430.402344 510.402344 430.402344 510.890625 C 430.402344 511.382812 430.003906 511.78125 429.515625 511.78125 Z M 427.089844 518.15625 L 388.785156 518.15625 C 388.292969 518.15625 387.898438 517.757812 387.898438 517.265625 C 387.898438 516.777344 388.292969 516.378906 388.785156 516.378906 L 427.089844 516.378906 C 427.582031 516.378906 427.976562 516.777344 427.976562 517.265625 C 427.976562 517.757812 427.582031 518.15625 427.089844 518.15625 Z M 424.667969 522.753906 C 425.15625 522.753906 425.554688 523.152344 425.554688 523.640625 C 425.554688 524.132812 425.15625 524.53125 424.667969 524.53125 L 386.363281 524.53125 C 385.871094 524.53125 385.472656 524.132812 385.472656 523.640625 C 385.472656 523.152344 385.871094 522.753906 386.363281 522.753906 Z M 501.464844 239.855469 C 498.941406 237.457031 497.375 233.539062 497.375 229.628906 C 497.375 228.664062 497.476562 227.722656 497.664062 226.8125 C 497.816406 226.066406 498.03125 225.34375 498.304688 224.648438 C 498.964844 222.972656 499.960938 221.464844 501.269531 220.214844 C 505.980469 215.726562 523.660156 209.710938 537.453125 210.917969 C 544.820312 211.5625 550.195312 214.109375 553.425781 218.488281 C 553.453125 218.527344 553.476562 218.574219 553.503906 218.613281 C 553.9375 219.222656 554.3125 219.90625 554.648438 220.625 C 558.164062 228.109375 556.59375 240.925781 555.667969 246.472656 C 555.652344 246.5625 555.613281 246.640625 555.574219 246.71875 C 556.15625 246.867188 556.746094 247.097656 557.339844 247.453125 C 558.71875 248.28125 559.675781 249.746094 560.105469 251.679688 C 560.207031 252.128906 560.269531 252.597656 560.3125 253.078125 C 563.558594 253.59375 567.074219 254.691406 569.289062 256.984375 C 572.140625 259.941406 572.058594 262.578125 571.984375 264.90625 C 571.929688 266.628906 571.878906 268.121094 573.035156 269.644531 C 574.261719 271.265625 576.140625 271.730469 578.125 272.222656 C 580.535156 272.820312 583.027344 273.441406 584.117188 276.242188 C 585.320312 279.335938 583.839844 282.34375 582.527344 284.996094 C 581.851562 286.367188 581.210938 287.664062 580.964844 288.867188 C 580.484375 291.25 581.128906 293.070312 581.753906 294.828125 C 582.453125 296.785156 583.171875 298.8125 582.207031 301.332031 C 581.222656 303.886719 578.726562 304.75 576.351562 305.390625 C 575.660156 304.957031 574.964844 304.53125 574.265625 304.113281 C 563.695312 297.773438 552.523438 293.265625 550.066406 292.304688 C 549.839844 292.214844 549.667969 292.148438 549.597656 292.121094 C 549.308594 292.011719 548.976562 292.0625 548.730469 292.253906 C 548.71875 292.265625 548.558594 292.386719 548.292969 292.582031 L 548.320312 264.8125 C 548.320312 264.566406 548.421875 264.332031 548.597656 264.164062 C 548.757812 264.019531 548.96875 263.949219 549.175781 263.9375 C 549.203125 263.9375 549.230469 263.925781 549.261719 263.925781 C 549.316406 263.929688 554.324219 264.171875 556.660156 260.699219 C 558.265625 258.304688 558.972656 254.757812 558.371094 252.0625 C 558.148438 251.050781 557.628906 249.695312 556.421875 248.972656 C 553.324219 247.109375 550.019531 249.601562 549.753906 249.8125 C 549.535156 250 549.359375 250.175781 549.175781 250.355469 C 548.195312 251.296875 547.585938 252.09375 547.136719 252.699219 C 546.429688 253.648438 545.820312 254.472656 544.496094 254.472656 C 544.496094 254.472656 544.492188 254.472656 544.492188 254.472656 C 541.953125 254.46875 536.132812 242.910156 531.898438 233.699219 C 531.710938 235.613281 531.117188 237.773438 529.628906 239.574219 C 528.742188 240.648438 527.730469 240.785156 527.027344 240.714844 C 524.835938 240.488281 522.472656 237.707031 520.78125 235.246094 L 521.539062 240.570312 C 521.609375 241.042969 521.289062 241.488281 520.816406 241.570312 C 520.34375 241.652344 511.511719 243.175781 505.539062 241.769531 C 505.773438 242.992188 506.015625 244.1875 506.242188 245.308594 C 506.914062 248.566406 507.492188 251.378906 507.601562 253.648438 C 507.695312 255.46875 507.441406 257.5625 507.171875 259.777344 C 506.460938 265.574219 505.660156 272.144531 510.261719 277.621094 C 513.417969 281.378906 517.90625 283.671875 522.894531 284.070312 C 527.09375 284.402344 533.539062 283.539062 540.496094 277.519531 C 540.867188 277.199219 541.429688 277.238281 541.75 277.609375 C 542.070312 277.980469 542.03125 278.542969 541.660156 278.863281 C 535.113281 284.523438 528.929688 285.902344 524.453125 285.902344 C 523.855469 285.902344 523.289062 285.878906 522.75 285.835938 C 521.550781 285.742188 520.378906 285.527344 519.238281 285.234375 L 519.238281 293.976562 C 519.191406 293.898438 519.160156 293.835938 519.152344 293.820312 C 518.949219 293.398438 518.449219 293.199219 518.023438 293.375 C 517.945312 293.40625 517.75 293.480469 517.460938 293.601562 L 517.460938 284.6875 C 514.148438 283.507812 511.199219 281.5 508.898438 278.761719 C 503.804688 272.695312 504.691406 265.410156 505.40625 259.558594 C 505.667969 257.425781 505.914062 255.40625 505.832031 253.734375 C 505.722656 251.601562 505.15625 248.851562 504.503906 245.667969 C 504.214844 244.253906 503.90625 242.746094 503.613281 241.183594 C 502.773438 240.839844 502.039062 240.40625 501.464844 239.855469 Z M 513.425781 249.945312 L 513.597656 253.601562 C 513.621094 254.089844 513.242188 254.507812 512.75 254.53125 C 512.738281 254.53125 512.722656 254.53125 512.710938 254.53125 C 512.238281 254.53125 511.84375 254.160156 511.824219 253.683594 L 511.65625 250.027344 C 511.628906 249.539062 512.007812 249.121094 512.5 249.097656 C 512.996094 249.074219 513.40625 249.457031 513.425781 249.945312 Z M 528.195312 249.035156 L 528.367188 252.691406 C 528.390625 253.183594 528.011719 253.597656 527.519531 253.621094 C 527.507812 253.621094 527.492188 253.621094 527.480469 253.621094 C 527.007812 253.621094 526.613281 253.25 526.59375 252.777344 L 526.421875 249.117188 C 526.398438 248.628906 526.777344 248.214844 527.269531 248.191406 C 527.746094 248.164062 528.175781 248.546875 528.195312 249.035156 Z M 515.644531 260.257812 C 518.09375 254.210938 517.566406 250.914062 517.5625 250.882812 C 517.476562 250.402344 517.800781 249.941406 518.28125 249.855469 C 518.761719 249.765625 519.21875 250.085938 519.308594 250.566406 C 519.335938 250.71875 519.960938 254.335938 517.292969 260.925781 C 516.996094 261.660156 516.984375 262.234375 517.269531 262.636719 C 517.730469 263.292969 519.011719 263.664062 520.625 263.585938 C 521.113281 263.527344 521.527344 263.945312 521.550781 264.433594 C 521.570312 264.925781 521.191406 265.339844 520.699219 265.359375 C 520.542969 265.367188 520.390625 265.371094 520.238281 265.371094 C 518.1875 265.371094 516.589844 264.757812 515.816406 263.660156 C 515.371094 263.023438 514.972656 261.917969 515.644531 260.257812 Z M 509.070312 247.074219 C 508.910156 247.191406 508.726562 247.25 508.542969 247.25 C 508.269531 247.25 508.003906 247.125 507.828125 246.890625 C 507.539062 246.496094 507.621094 245.9375 508.015625 245.648438 C 510.695312 243.667969 514.136719 243.707031 514.289062 243.695312 C 514.78125 243.703125 515.171875 244.101562 515.164062 244.59375 C 515.160156 245.082031 514.703125 245.4375 514.269531 245.472656 C 514.234375 245.457031 511.257812 245.457031 509.070312 247.074219 Z M 531.214844 246.175781 C 528.132812 243.824219 523.789062 244.753906 523.742188 244.765625 C 523.273438 244.871094 522.789062 244.570312 522.683594 244.09375 C 522.578125 243.617188 522.875 243.140625 523.351562 243.03125 C 523.5625 242.984375 528.535156 241.902344 532.292969 244.765625 C 532.679688 245.0625 532.757812 245.617188 532.457031 246.007812 C 532.285156 246.238281 532.019531 246.359375 531.753906 246.359375 C 531.566406 246.359375 531.375 246.300781 531.214844 246.175781 Z M 404.265625 328.867188 L 399.875 328.867188 C 400.253906 328.867188 400.589844 329.105469 400.714844 329.464844 L 401.125 330.644531 L 404.265625 330.644531 C 405.511719 330.644531 406.621094 331.433594 407.03125 332.609375 L 439.054688 424.585938 C 439.179688 424.941406 439.515625 425.179688 439.894531 425.179688 L 531.574219 425.179688 C 533.136719 425.179688 534.472656 426.300781 534.617188 427.726562 C 534.699219 428.546875 534.445312 429.328125 533.898438 429.929688 C 533.359375 430.523438 532.589844 430.867188 531.785156 430.867188 L 436.019531 430.867188 L 436.230469 431.464844 C 436.324219 431.734375 436.28125 432.035156 436.113281 432.269531 C 435.945312 432.503906 435.675781 432.644531 435.390625 432.644531 L 531.785156 432.644531 C 531.917969 432.644531 532.046875 432.613281 532.179688 432.601562 C 533.335938 432.5 534.429688 431.992188 535.214844 431.121094 C 535.292969 431.035156 535.347656 430.933594 535.417969 430.84375 C 536.140625 429.910156 536.503906 428.738281 536.382812 427.550781 C 536.296875 426.71875 535.96875 425.957031 535.472656 425.3125 C 538.746094 425.367188 542.011719 425.429688 545.128906 425.492188 C 552.253906 425.625 559.070312 425.757812 563.925781 425.757812 C 565.328125 425.757812 566.570312 425.746094 567.605469 425.722656 C 571.183594 425.636719 574.519531 425.484375 577.667969 425.265625 C 578.261719 425.222656 578.863281 425.183594 579.441406 425.136719 C 596.308594 423.75 606.523438 419.765625 608.945312 408.648438 C 609.261719 407.207031 609.488281 405.691406 609.652344 404.160156 C 609.746094 403.277344 609.816406 402.386719 609.871094 401.5 C 610.414062 392.515625 609.03125 383.585938 608.957031 383.113281 C 608.957031 383.109375 608.957031 383.109375 608.957031 383.109375 C 608.878906 382.625 608.417969 382.296875 607.941406 382.375 C 607.503906 382.445312 607.210938 382.820312 607.210938 383.25 C 607.210938 383.296875 607.195312 383.34375 607.203125 383.390625 C 607.226562 383.535156 609.464844 397.933594 607.214844 408.273438 C 604.5 420.714844 591.183594 423.378906 567.566406 423.945312 C 562.980469 424.058594 554.328125 423.890625 545.164062 423.714844 C 541.078125 423.636719 536.75 423.554688 532.476562 423.488281 C 532.183594 423.433594 531.878906 423.40625 531.574219 423.40625 L 525.753906 423.40625 C 523.132812 423.382812 520.589844 423.367188 518.230469 423.378906 C 513.242188 423.402344 508.648438 421.925781 506.132812 419.539062 C 508.042969 417.21875 510.707031 414.132812 513.457031 412.890625 C 513.902344 412.6875 514.101562 412.160156 513.898438 411.714844 C 513.695312 411.265625 513.164062 411.074219 512.722656 411.269531 C 512.703125 411.28125 512.683594 411.292969 512.664062 411.300781 C 509.316406 412.84375 506.269531 416.558594 504.253906 419.027344 C 503.832031 419.546875 503.460938 420 503.152344 420.34375 C 502.277344 421.339844 501.25 421.492188 500.691406 421.449219 C 499.96875 421.429688 499.4375 421.15625 499.230469 420.890625 C 498.300781 419.714844 498.96875 417.464844 501.210938 414.203125 C 503.621094 410.695312 509.027344 407.359375 509.082031 407.328125 C 509.5 407.070312 509.632812 406.523438 509.375 406.105469 C 509.121094 405.6875 508.574219 405.558594 508.15625 405.8125 C 507.921875 405.957031 502.375 409.378906 499.75 413.199219 C 498.367188 415.210938 496.796875 417.910156 497.109375 420.191406 C 497.023438 420.234375 496.941406 420.277344 496.871094 420.34375 C 496.359375 420.847656 495.480469 421.117188 494.585938 421.058594 C 493.859375 421.011719 493.234375 420.742188 492.921875 420.339844 C 492.242188 419.472656 492.257812 416.671875 495.195312 412.859375 C 498.117188 409.082031 503.324219 404.636719 503.375 404.59375 C 503.476562 404.507812 503.546875 404.40625 503.601562 404.296875 C 503.742188 403.988281 503.710938 403.617188 503.476562 403.34375 C 503.160156 402.96875 502.601562 402.925781 502.222656 403.242188 C 502.175781 403.285156 501.859375 403.550781 501.382812 403.972656 C 499.757812 405.414062 496.136719 408.738281 493.792969 411.777344 C 491.328125 414.964844 490.574219 417.75 490.84375 419.675781 C 490.210938 420.304688 489.355469 420.652344 488.597656 420.527344 C 487.929688 420.414062 487.4375 419.953125 487.167969 419.191406 C 486.644531 417.707031 486.777344 414.8125 488.875 411.539062 C 491.28125 407.78125 495.382812 404.414062 496.714844 403.375 C 496.976562 403.167969 497.144531 403.046875 497.152344 403.039062 C 497.546875 402.746094 497.632812 402.191406 497.339844 401.796875 C 497.050781 401.398438 496.492188 401.320312 496.101562 401.605469 C 495.875 401.773438 490.582031 405.699219 487.496094 410.40625 C 486.128906 411.1875 484.636719 412.488281 483.1875 413.765625 C 481.71875 415.054688 480.203125 416.390625 479.320312 416.667969 C 478.648438 416.875 477.601562 416.71875 477.078125 416.101562 C 476.511719 415.425781 476.625 414.226562 477.402344 412.722656 C 481.03125 405.683594 491.160156 398.144531 500.460938 398.136719 C 500.464844 398.136719 500.472656 398.136719 500.476562 398.136719 C 508.738281 398.136719 513.972656 400.738281 519.949219 404.132812 C 520.125 404.234375 520.320312 404.269531 520.523438 404.242188 L 575.195312 395.8125 C 575.433594 395.773438 575.648438 395.640625 575.785156 395.445312 C 575.925781 395.246094 575.976562 395 575.933594 394.765625 L 573.699219 383.25 L 573.664062 383.082031 C 573.664062 383.078125 573.664062 383.078125 573.660156 383.074219 L 573.523438 382.363281 L 564.890625 338.222656 C 564.796875 337.742188 564.324219 337.425781 563.847656 337.519531 C 563.367188 337.617188 563.054688 338.082031 563.148438 338.5625 L 571.917969 383.390625 L 571.921875 383.414062 C 571.921875 383.414062 571.921875 383.417969 571.921875 383.421875 L 574.015625 394.195312 L 573.414062 394.289062 L 520.558594 402.4375 C 514.457031 398.984375 509.050781 396.363281 500.476562 396.363281 C 500.472656 396.363281 500.464844 396.363281 500.460938 396.363281 C 496.261719 396.363281 492.027344 397.730469 488.21875 399.835938 C 488.183594 399.855469 488.148438 399.871094 488.117188 399.890625 L 488.839844 383.289062 C 488.84375 383.183594 488.816406 383.085938 488.789062 382.988281 C 488.78125 382.964844 488.78125 382.9375 488.773438 382.910156 C 488.726562 382.800781 488.65625 382.699219 488.570312 382.613281 C 488.566406 382.609375 488.566406 382.605469 488.5625 382.601562 C 488.496094 382.539062 481.929688 376.246094 481.929688 366.269531 C 481.929688 356.15625 491.984375 339.015625 492.089844 338.84375 C 492.339844 338.421875 492.195312 337.878906 491.773438 337.628906 C 491.355469 337.378906 490.808594 337.519531 490.558594 337.941406 C 490.132812 338.660156 480.152344 355.671875 480.152344 366.269531 C 480.152344 374.144531 483.863281 379.796875 485.953125 382.363281 C 486.417969 382.925781 486.800781 383.347656 487.050781 383.601562 L 487.023438 384.136719 L 486.292969 400.984375 C 481.652344 403.976562 477.832031 408.019531 475.824219 411.910156 C 474.898438 413.707031 474.816406 415.023438 475.070312 415.976562 C 472.257812 417.128906 469 418.101562 465.371094 418.765625 C 465.386719 418.730469 465.410156 418.699219 465.421875 418.664062 C 466.558594 415.570312 461.066406 405.515625 456.238281 401.855469 C 453.609375 399.859375 450.464844 399.160156 446.753906 398.832031 L 456.964844 393.667969 C 457.230469 393.53125 457.410156 393.277344 457.449219 392.980469 L 458.53125 384.136719 L 457.746094 384.136719 C 457.488281 384.136719 457.246094 384.027344 457.078125 383.835938 C 456.910156 383.644531 456.832031 383.390625 456.863281 383.140625 L 455.742188 392.296875 L 455.738281 392.296875 L 454.109375 393.121094 L 443.265625 398.609375 C 442.675781 398.582031 442.082031 398.554688 441.464844 398.53125 L 439.359375 398.441406 C 436.855469 398.328125 434.457031 398.78125 432.265625 399.683594 L 408.707031 332.023438 C 408.050781 330.136719 406.265625 328.867188 404.265625 328.867188 Z M 487.164062 421.839844 C 487.171875 421.847656 487.179688 421.855469 487.191406 421.859375 C 487.535156 422.054688 487.898438 422.210938 488.304688 422.277344 C 488.511719 422.3125 488.71875 422.328125 488.929688 422.328125 C 489.832031 422.328125 490.742188 421.996094 491.523438 421.429688 C 491.523438 421.429688 491.523438 421.433594 491.523438 421.433594 C 492.15625 422.238281 493.226562 422.746094 494.46875 422.828125 C 494.589844 422.835938 494.710938 422.84375 494.832031 422.84375 C 495.945312 422.84375 496.988281 422.484375 497.773438 421.878906 C 497.800781 421.914062 497.808594 421.957031 497.835938 421.992188 C 498.421875 422.734375 499.46875 423.191406 500.644531 423.226562 C 500.6875 423.226562 500.730469 423.226562 500.777344 423.226562 C 502.179688 423.226562 503.527344 422.609375 504.484375 421.523438 C 504.644531 421.34375 504.820312 421.136719 505.007812 420.910156 C 506.074219 421.894531 507.429688 422.738281 509.003906 423.40625 L 487.09375 423.40625 Z M 476.082031 417.542969 C 477.160156 418.5 478.726562 418.714844 479.855469 418.363281 C 480.488281 418.160156 481.195312 417.710938 481.96875 417.117188 C 482.429688 416.765625 482.921875 416.351562 483.429688 415.910156 C 483.734375 415.644531 484.042969 415.378906 484.363281 415.09375 C 484.820312 414.695312 485.277344 414.296875 485.730469 413.910156 L 485.722656 414.070312 C 485.394531 415.085938 485.210938 416.042969 485.160156 416.90625 C 485.113281 417.699219 485.164062 418.414062 485.292969 419.03125 C 485.34375 419.273438 485.40625 419.503906 485.480469 419.714844 L 485.316406 423.402344 L 452.285156 423.402344 C 452.65625 422.894531 453.007812 422.21875 453.335938 421.429688 C 453.988281 421.449219 454.640625 421.46875 455.285156 421.46875 C 457.382812 421.46875 459.40625 421.347656 461.367188 421.148438 C 461.867188 421.167969 462.363281 421.144531 462.824219 421.019531 C 462.882812 421.003906 462.929688 420.972656 462.988281 420.957031 C 467.933594 420.308594 472.378906 419.09375 476.082031 417.542969 Z M 453.976562 419.667969 C 454.449219 418.238281 454.839844 416.742188 455.117188 415.574219 C 455.25 415.792969 455.382812 416.019531 455.519531 416.246094 C 456.246094 417.488281 457 418.738281 457.839844 419.613281 C 456.578125 419.671875 455.292969 419.695312 453.976562 419.667969 Z M 439.28125 400.214844 L 441.394531 400.304688 C 447.214844 400.539062 451.8125 400.726562 455.167969 403.269531 C 460.039062 406.964844 464.40625 416.277344 463.753906 418.054688 C 463.519531 418.699219 463.050781 419.121094 462.359375 419.304688 C 461.417969 419.5625 460.148438 419.300781 459.417969 418.695312 C 458.632812 418.046875 457.789062 416.613281 457.046875 415.347656 C 456.570312 414.535156 456.113281 413.769531 455.660156 413.160156 C 456.21875 410.894531 456.777344 407.996094 456.800781 407.863281 C 456.894531 407.382812 456.578125 406.917969 456.097656 406.824219 C 455.621094 406.734375 455.148438 407.050781 455.058594 407.53125 C 455.050781 407.566406 454.414062 410.894531 453.832031 413.144531 C 453.832031 413.15625 453.835938 413.164062 453.832031 413.175781 C 453.828125 413.183594 453.824219 413.1875 453.824219 413.191406 C 453.21875 416.246094 451.824219 421.503906 450.652344 422.613281 C 449.933594 423.292969 448.894531 423.542969 448.0625 423.261719 C 447.566406 423.085938 446.945312 422.648438 446.789062 421.550781 C 446.40625 418.847656 446.875 410.824219 448.542969 406.503906 C 448.722656 406.046875 448.492188 405.53125 448.035156 405.355469 C 447.574219 405.179688 447.0625 405.40625 446.886719 405.863281 C 445.101562 410.484375 444.664062 418.519531 445 421.539062 C 444.609375 422.566406 443.871094 423.296875 443.078125 423.394531 C 442.277344 423.511719 441.683594 422.894531 441.34375 422.371094 C 440.316406 420.78125 439.992188 417.722656 440.347656 413.027344 C 440.613281 409.527344 441.808594 405.917969 441.820312 405.882812 C 441.976562 405.417969 441.726562 404.914062 441.261719 404.757812 C 440.800781 404.597656 440.292969 404.851562 440.136719 405.316406 C 440.085938 405.472656 438.855469 409.164062 438.574219 412.890625 C 438.445312 414.632812 438.410156 416.144531 438.460938 417.484375 L 434.898438 407.242188 C 435.105469 406.410156 435.273438 405.902344 435.277344 405.890625 C 435.4375 405.429688 435.191406 404.921875 434.730469 404.761719 C 434.496094 404.679688 434.25 404.703125 434.046875 404.804688 L 432.847656 401.359375 C 434.828125 400.527344 436.996094 400.109375 439.28125 400.214844 Z M 556.222656 294.914062 C 556.632812 295.179688 556.75 295.726562 556.484375 296.136719 C 556.464844 296.160156 556.308594 296.386719 555.996094 296.75 C 555.234375 297.640625 553.433594 299.464844 549.675781 302.015625 C 545.984375 304.515625 538.835938 308.371094 529.878906 308.371094 C 528.703125 308.371094 527.496094 308.304688 526.261719 308.160156 C 517.386719 307.121094 512.203125 300.65625 510.722656 298.53125 C 510.464844 298.164062 510.304688 297.90625 510.269531 297.855469 C 510.019531 297.433594 510.152344 296.886719 510.574219 296.636719 C 510.992188 296.382812 511.539062 296.519531 511.792969 296.9375 C 511.800781 296.953125 511.996094 297.265625 512.367188 297.765625 C 513.941406 299.902344 518.75 305.492188 526.46875 306.398438 C 536.53125 307.574219 544.707031 303.234375 548.679688 300.542969 C 551.761719 298.453125 553.453125 296.882812 554.292969 295.996094 C 554.796875 295.460938 554.992188 295.175781 554.996094 295.167969 C 555.265625 294.761719 555.8125 294.648438 556.222656 294.914062 Z M 523.503906 276.972656 C 523.949219 276.972656 524.414062 276.929688 524.902344 276.835938 C 531.0625 275.660156 532.738281 270.226562 532.808594 269.996094 C 532.898438 269.691406 532.820312 269.363281 532.605469 269.132812 C 532.386719 268.902344 532.058594 268.808594 531.757812 268.878906 C 525.050781 270.441406 517.53125 270.5 517.453125 270.5 C 517.164062 270.5 516.894531 270.640625 516.730469 270.878906 C 516.566406 271.113281 516.523438 271.414062 516.621094 271.683594 C 517.320312 273.644531 519.59375 276.972656 523.503906 276.972656 Z M 530.417969 270.980469 C 529.566406 272.421875 527.824219 274.472656 524.566406 275.09375 C 521.46875 275.679688 519.695312 273.625 518.863281 272.242188 C 521.117188 272.164062 525.75 271.894531 530.417969 270.980469 Z M 669.238281 389.71875 L 684.894531 384.46875 C 685.253906 384.347656 685.496094 384.011719 685.5 383.632812 C 685.5 383.253906 685.261719 382.914062 684.902344 382.789062 L 648.085938 370.042969 C 647.761719 369.929688 647.40625 370.015625 647.164062 370.253906 C 646.925781 370.492188 646.84375 370.851562 646.953125 371.171875 L 659.699219 407.988281 C 659.824219 408.34375 660.160156 408.582031 660.535156 408.585938 C 660.539062 408.585938 660.539062 408.585938 660.539062 408.585938 C 660.917969 408.585938 661.253906 408.347656 661.378906 407.992188 L 667.449219 390.792969 C 671.65625 392.929688 680.152344 398.03125 685.523438 406.59375 C 691.113281 415.5 691.644531 425.359375 687.101562 435.898438 C 681.390625 449.148438 665.675781 457.539062 649.71875 456.636719 C 647.710938 449.046875 644.703125 442.597656 640.738281 437.40625 C 639.144531 435.320312 636.621094 432.410156 633.101562 431.203125 C 629.957031 430.128906 625.683594 430.695312 623.585938 433.859375 C 621.765625 436.617188 622.4375 440.054688 623 441.859375 C 625.839844 450.929688 635.394531 455.933594 643.390625 457.59375 C 645.027344 457.933594 646.667969 458.171875 648.3125 458.316406 C 648.683594 459.828125 649.015625 461.386719 649.304688 462.984375 C 649.636719 464.792969 649.894531 466.617188 650.109375 468.445312 L 651.902344 468.445312 C 651.675781 466.507812 651.40625 464.582031 651.054688 462.667969 C 650.792969 461.222656 650.496094 459.8125 650.167969 458.4375 C 666.683594 459.164062 682.796875 450.363281 688.730469 436.601562 C 698.242188 414.539062 684.5625 397.84375 669.238281 389.71875 Z M 643.753906 455.855469 C 636.25 454.296875 627.308594 449.660156 624.699219 441.324219 C 624.230469 439.824219 623.65625 436.980469 625.074219 434.839844 C 626.167969 433.1875 628.148438 432.484375 630.074219 432.484375 C 630.933594 432.484375 631.78125 432.625 632.527344 432.882812 C 634.863281 433.679688 637.023438 435.460938 639.332031 438.484375 C 643.046875 443.351562 645.898438 449.386719 647.84375 456.484375 C 646.476562 456.34375 645.113281 456.136719 643.753906 455.855469 Z M 625.226562 538.785156 L 628.265625 538.785156 C 621.6875 543.71875 610.507812 549.765625 601.835938 553.777344 C 590.992188 558.792969 573.042969 562.050781 553.4375 562.050781 C 530.898438 562.050781 506.167969 557.746094 487.507812 546.855469 C 487.085938 546.609375 486.941406 546.0625 487.1875 545.640625 C 487.433594 545.214844 487.980469 545.070312 488.402344 545.320312 C 522.804688 565.402344 578.121094 562.789062 601.089844 552.164062 C 608.867188 548.566406 618.660156 543.332031 625.226562 538.785156 Z M 214.933594 359.484375 C 215.082031 359.789062 215.394531 359.984375 215.734375 359.984375 C 216.070312 359.984375 216.382812 359.789062 216.53125 359.484375 L 233.550781 324.4375 C 233.714844 324.097656 233.648438 323.691406 233.382812 323.421875 C 233.117188 323.15625 232.710938 323.085938 232.371094 323.25 L 215.847656 331.152344 C 211.125 320.269531 210.449219 304.46875 217.644531 297.089844 C 222.699219 291.910156 231.585938 290.257812 239.757812 292.980469 C 241.886719 293.6875 243.894531 294.625 245.777344 295.714844 C 244.53125 302.769531 247.726562 311.652344 255.242188 314.332031 C 257.921875 315.292969 261.40625 314.941406 262.585938 312.40625 C 263.886719 309.601562 261.238281 306.710938 260.367188 305.761719 C 257.054688 302.15625 252.878906 298.007812 247.773438 294.839844 C 249.371094 288.171875 254.191406 282.535156 258.289062 278.316406 C 263.566406 272.882812 269.414062 267.953125 275.6875 263.582031 L 275.6875 291.226562 C 275.6875 291.898438 275.824219 292.535156 276.019531 293.144531 L 276.003906 293.15625 C 275.628906 293.476562 275.582031 294.035156 275.898438 294.410156 C 276.074219 294.617188 276.324219 294.726562 276.578125 294.726562 C 276.632812 294.726562 276.6875 294.707031 276.742188 294.695312 C 277.867188 296.386719 279.789062 297.507812 281.96875 297.507812 L 376.582031 297.507812 C 378.761719 297.507812 380.683594 296.386719 381.808594 294.695312 C 381.863281 294.707031 381.917969 294.726562 381.972656 294.726562 C 382.226562 294.726562 382.476562 294.617188 382.652344 294.410156 C 382.96875 294.035156 382.921875 293.476562 382.546875 293.15625 L 382.53125 293.144531 C 382.726562 292.535156 382.863281 291.898438 382.863281 291.226562 L 382.863281 246.667969 C 385.832031 247.558594 388.765625 248.558594 391.648438 249.671875 C 401.75 253.578125 422.882812 265.8125 429.847656 273.511719 C 430.175781 273.875 430.734375 273.902344 431.101562 273.574219 C 431.464844 273.246094 431.492188 272.683594 431.164062 272.320312 C 424.046875 264.449219 402.546875 251.984375 392.289062 248.015625 C 389.199219 246.820312 386.050781 245.765625 382.863281 244.820312 L 382.863281 233.445312 C 382.863281 229.980469 380.046875 227.164062 376.582031 227.164062 L 281.96875 227.164062 C 278.507812 227.164062 275.6875 229.980469 275.6875 233.445312 L 275.6875 261.441406 C 268.9375 266.042969 262.652344 271.273438 257.015625 277.082031 C 252.859375 281.355469 247.992188 287.050781 246.179688 293.902344 C 244.339844 292.875 242.386719 291.984375 240.320312 291.296875 C 231.515625 288.363281 221.890625 290.195312 216.375 295.851562 C 208.863281 303.550781 209.109375 318.964844 213.632812 330.484375 L 199.109375 323.253906 C 198.769531 323.085938 198.359375 323.152344 198.089844 323.417969 C 197.820312 323.6875 197.75 324.09375 197.914062 324.4375 Z M 376.578125 295.730469 L 281.964844 295.730469 C 280.375 295.730469 278.980469 294.894531 278.179688 293.644531 L 312.363281 264.800781 L 324.730469 275.234375 C 326.089844 276.382812 327.679688 276.957031 329.273438 276.957031 C 330.863281 276.957031 332.457031 276.382812 333.816406 275.234375 L 346.179688 264.800781 L 380.367188 293.644531 C 379.566406 294.894531 378.171875 295.730469 376.578125 295.730469 Z M 381.082031 291.226562 C 381.082031 291.449219 381.050781 291.660156 381.019531 291.871094 L 347.558594 263.640625 L 381.085938 235.355469 L 381.085938 291.226562 Z M 281.964844 228.9375 L 376.578125 228.9375 C 378.933594 228.9375 380.847656 230.761719 381.046875 233.0625 L 332.671875 273.878906 C 330.605469 275.621094 327.9375 275.621094 325.875 273.878906 L 277.5 233.0625 C 277.695312 230.757812 279.613281 228.9375 281.964844 228.9375 Z M 277.460938 235.355469 L 310.988281 263.640625 L 277.527344 291.871094 C 277.496094 291.660156 277.460938 291.449219 277.460938 291.226562 Z M 247.417969 296.71875 C 252.089844 299.734375 255.957031 303.59375 259.058594 306.964844 C 260.886719 308.960938 261.511719 310.496094 260.972656 311.660156 C 260.273438 313.160156 257.761719 313.347656 255.835938 312.664062 C 249.445312 310.382812 246.617188 302.921875 247.417969 296.71875 Z M 247.417969 296.71875 " fill-opacity="1" fill-rule="nonzero"/></g></svg>