<svg xmlns="http://www.w3.org/2000/svg" xmlns:xlink="http://www.w3.org/1999/xlink" width="1080" zoomAndPan="magnify" viewBox="0 0 810 809.999993" height="1080" preserveAspectRatio="xMidYMid meet" version="1.0"><defs><g/></defs><g fill="#ffffff" fill-opacity="1"><g transform="translate(122.565876, 427.425346)"><g><path d="M 0.921875 -9.140625 C 1.460938 -9.078125 2.035156 -9.046875 2.640625 -9.046875 C 3.253906 -9.046875 3.835938 -9.046875 4.390625 -9.046875 C 5.972656 -9.046875 7.328125 -9.441406 8.453125 -10.234375 C 9.585938 -11.035156 10.15625 -12.6875 10.15625 -15.1875 L 10.15625 -64.015625 L 20.21875 -64.015625 L 20.21875 -15.90625 C 20.21875 -12.675781 19.816406 -10.023438 19.015625 -7.953125 C 18.222656 -5.878906 17.15625 -4.25 15.8125 -3.0625 C 14.476562 -1.875 12.941406 -1.035156 11.203125 -0.546875 C 9.460938 -0.0546875 7.648438 0.1875 5.765625 0.1875 C 4.847656 0.1875 4.019531 0.1875 3.28125 0.1875 C 2.550781 0.1875 1.765625 0.125 0.921875 0 Z M 0.921875 -9.140625 "/></g></g></g><g fill="#ffffff" fill-opacity="1"><g transform="translate(145.979711, 427.425346)"><g><path d="M 13.71875 -37.03125 L 27.53125 -37.03125 L 27.53125 -27.890625 L 13.71875 -27.890625 L 13.71875 -9.140625 L 31.09375 -9.140625 L 31.09375 0 L 3.65625 0 L 3.65625 -64.015625 L 31.09375 -64.015625 L 31.09375 -54.875 L 13.71875 -54.875 Z M 13.71875 -37.03125 "/></g></g></g><g fill="#ffffff" fill-opacity="1"><g transform="translate(179.6371, 427.425346)"><g><path d="M 3.65625 -64.015625 L 13.71875 -64.015625 L 13.71875 -9.140625 L 30.265625 -9.140625 L 30.265625 0 L 3.65625 0 Z M 3.65625 -64.015625 "/></g></g></g><g fill="#ffffff" fill-opacity="1"><g transform="translate(210.825064, 427.425346)"><g><path d="M 3.65625 -64.015625 L 13.71875 -64.015625 L 13.71875 0 L 3.65625 0 Z M 3.65625 -64.015625 "/></g></g></g><g fill="#ffffff" fill-opacity="1"><g transform="translate(228.202526, 427.425346)"><g><path d="M 31.546875 -64.015625 L 31.546875 -55.0625 L 12.4375 -9.140625 L 31.546875 -9.140625 L 31.546875 0 L 2.109375 0 L 2.109375 -8.96875 L 21.21875 -54.875 L 3.015625 -54.875 L 3.015625 -64.015625 Z M 31.546875 -64.015625 "/></g></g></g><g fill="#ffffff" fill-opacity="1"><g transform="translate(262.042843, 427.425346)"><g><path d="M 36.21875 0 L 26.0625 0 L 24.328125 -11.609375 L 11.984375 -11.609375 L 10.25 0 L 1 0 L 11.25 -64.015625 L 25.96875 -64.015625 Z M 13.265625 -20.296875 L 22.953125 -20.296875 L 18.109375 -52.671875 Z M 13.265625 -20.296875 "/></g></g></g><g fill="#ffffff" fill-opacity="1"><g transform="translate(299.267179, 427.425346)"><g><path d="M 18.84375 -11.796875 L 26.515625 -64.015625 L 35.765625 -64.015625 L 25.875 0 L 10.890625 0 L 1 -64.015625 L 11.15625 -64.015625 Z M 18.84375 -11.796875 "/></g></g></g><g fill="#ffffff" fill-opacity="1"><g transform="translate(336.034224, 427.425346)"><g><path d="M 13.71875 -37.03125 L 27.53125 -37.03125 L 27.53125 -27.890625 L 13.71875 -27.890625 L 13.71875 -9.140625 L 31.09375 -9.140625 L 31.09375 0 L 3.65625 0 L 3.65625 -64.015625 L 31.09375 -64.015625 L 31.09375 -54.875 L 13.71875 -54.875 Z M 13.71875 -37.03125 "/></g></g></g><g fill="#ffffff" fill-opacity="1"><g transform="translate(369.691613, 427.425346)"><g><path d="M 0.921875 -64.015625 L 32.015625 -64.015625 L 32.015625 -54.875 L 21.484375 -54.875 L 21.484375 0 L 11.4375 0 L 11.4375 -54.875 L 0.921875 -54.875 Z M 0.921875 -64.015625 "/></g></g></g><g fill="#ffffff" fill-opacity="1"><g transform="translate(402.617319, 427.425346)"><g><path d="M 36.21875 0 L 26.0625 0 L 24.328125 -11.609375 L 11.984375 -11.609375 L 10.25 0 L 1 0 L 11.25 -64.015625 L 25.96875 -64.015625 Z M 13.265625 -20.296875 L 22.953125 -20.296875 L 18.109375 -52.671875 Z M 13.265625 -20.296875 "/></g></g></g><g fill="#ffffff" fill-opacity="1"><g transform="translate(439.841655, 427.425346)"><g/></g></g><g fill="#ffffff" fill-opacity="1"><g transform="translate(454.018011, 427.425346)"><g><path d="M 0.921875 -64.015625 L 32.015625 -64.015625 L 32.015625 -54.875 L 21.484375 -54.875 L 21.484375 0 L 11.4375 0 L 11.4375 -54.875 L 0.921875 -54.875 Z M 0.921875 -64.015625 "/></g></g></g><g fill="#ffffff" fill-opacity="1"><g transform="translate(486.943717, 427.425346)"><g><path d="M 2.375 -48.65625 C 2.375 -53.832031 3.609375 -57.804688 6.078125 -60.578125 C 8.546875 -63.359375 12.25 -64.75 17.1875 -64.75 C 22.125 -64.75 25.828125 -63.359375 28.296875 -60.578125 C 30.773438 -57.804688 32.015625 -53.832031 32.015625 -48.65625 L 32.015625 -46.1875 L 22.5 -46.1875 L 22.5 -49.296875 C 22.5 -51.609375 22.054688 -53.238281 21.171875 -54.1875 C 20.285156 -55.132812 19.050781 -55.609375 17.46875 -55.609375 C 15.882812 -55.609375 14.648438 -55.132812 13.765625 -54.1875 C 12.878906 -53.238281 12.4375 -51.609375 12.4375 -49.296875 C 12.4375 -47.097656 12.921875 -45.160156 13.890625 -43.484375 C 14.867188 -41.804688 16.085938 -40.21875 17.546875 -38.71875 C 19.015625 -37.226562 20.585938 -35.738281 22.265625 -34.25 C 23.941406 -32.757812 25.507812 -31.128906 26.96875 -29.359375 C 28.4375 -27.585938 29.65625 -25.570312 30.625 -23.3125 C 31.601562 -21.0625 32.09375 -18.410156 32.09375 -15.359375 C 32.09375 -10.179688 30.828125 -6.203125 28.296875 -3.421875 C 25.773438 -0.648438 22.046875 0.734375 17.109375 0.734375 C 12.160156 0.734375 8.421875 -0.648438 5.890625 -3.421875 C 3.367188 -6.203125 2.109375 -10.179688 2.109375 -15.359375 L 2.109375 -19.75 L 11.609375 -19.75 L 11.609375 -14.71875 C 11.609375 -12.40625 12.082031 -10.789062 13.03125 -9.875 C 13.976562 -8.957031 15.242188 -8.5 16.828125 -8.5 C 18.410156 -8.5 19.675781 -8.957031 20.625 -9.875 C 21.570312 -10.789062 22.046875 -12.40625 22.046875 -14.71875 C 22.046875 -16.914062 21.554688 -18.851562 20.578125 -20.53125 C 19.597656 -22.207031 18.375 -23.789062 16.90625 -25.28125 C 15.445312 -26.78125 13.878906 -28.273438 12.203125 -29.765625 C 10.523438 -31.265625 8.953125 -32.894531 7.484375 -34.65625 C 6.023438 -36.425781 4.804688 -38.4375 3.828125 -40.6875 C 2.859375 -42.945312 2.375 -45.601562 2.375 -48.65625 Z M 2.375 -48.65625 "/></g></g></g><g fill="#ffffff" fill-opacity="1"><g transform="translate(521.149861, 427.425346)"><g><path d="M 36.21875 0 L 26.0625 0 L 24.328125 -11.609375 L 11.984375 -11.609375 L 10.25 0 L 1 0 L 11.25 -64.015625 L 25.96875 -64.015625 Z M 13.265625 -20.296875 L 22.953125 -20.296875 L 18.109375 -52.671875 Z M 13.265625 -20.296875 "/></g></g></g><g fill="#ffffff" fill-opacity="1"><g transform="translate(558.374198, 427.425346)"><g><path d="M 3.65625 -64.015625 L 13.71875 -64.015625 L 13.71875 -9.140625 L 30.265625 -9.140625 L 30.265625 0 L 3.65625 0 Z M 3.65625 -64.015625 "/></g></g></g><g fill="#ffffff" fill-opacity="1"><g transform="translate(589.562149, 427.425346)"><g><path d="M 36.21875 0 L 26.0625 0 L 24.328125 -11.609375 L 11.984375 -11.609375 L 10.25 0 L 1 0 L 11.25 -64.015625 L 25.96875 -64.015625 Z M 13.265625 -20.296875 L 22.953125 -20.296875 L 18.109375 -52.671875 Z M 13.265625 -20.296875 "/></g></g></g><g fill="#ffffff" fill-opacity="1"><g transform="translate(626.786512, 427.425346)"><g><path d="M 0.921875 -9.140625 C 1.460938 -9.078125 2.035156 -9.046875 2.640625 -9.046875 C 3.253906 -9.046875 3.835938 -9.046875 4.390625 -9.046875 C 5.972656 -9.046875 7.328125 -9.441406 8.453125 -10.234375 C 9.585938 -11.035156 10.15625 -12.6875 10.15625 -15.1875 L 10.15625 -64.015625 L 20.21875 -64.015625 L 20.21875 -15.90625 C 20.21875 -12.675781 19.816406 -10.023438 19.015625 -7.953125 C 18.222656 -5.878906 17.15625 -4.25 15.8125 -3.0625 C 14.476562 -1.875 12.941406 -1.035156 11.203125 -0.546875 C 9.460938 -0.0546875 7.648438 0.1875 5.765625 0.1875 C 4.847656 0.1875 4.019531 0.1875 3.28125 0.1875 C 2.550781 0.1875 1.765625 0.125 0.921875 0 Z M 0.921875 -9.140625 "/></g></g></g><g fill="#ffffff" fill-opacity="1"><g transform="translate(650.200347, 427.425346)"><g><path d="M 36.21875 0 L 26.0625 0 L 24.328125 -11.609375 L 11.984375 -11.609375 L 10.25 0 L 1 0 L 11.25 -64.015625 L 25.96875 -64.015625 Z M 13.265625 -20.296875 L 22.953125 -20.296875 L 18.109375 -52.671875 Z M 13.265625 -20.296875 "/></g></g></g></svg>