<svg width="64" height="64" viewBox="0 0 16 16" fill="none" xmlns="http://www.w3.org/2000/svg">
  <path d="M8 0C3.58 0 0 3.58 0 8C0 11.54 2.29 14.53 5.47 15.59C5.87 15.66 6.02 15.41 6.02 15.16C6.02 14.97 6.01 14.39 6.01 13.72C4 14.09 3.48 13.23 3.32 12.78C3.23 12.56 2.74 11.84 2.42 11.6C2.17 11.42 1.82 11.01 2.49 10.99C3.11 10.96 3.57 11.62 3.79 11.87C4.52 12.8 5.39 12.49 6.02 12.27C6.08 11.67 6.32 11.22 6.57 10.92C4.78 10.72 2.92 9.96 2.92 7.11C2.92 6.32 3.2 5.64 3.71 5.09C3.63 4.89 3.33 3.88 3.82 2.91C3.82 2.91 4.48 2.71 6.02 3.74C6.67 3.56 7.34 3.47 8.02 3.47C8.7 3.47 9.37 3.56 10.02 3.74C11.56 2.71 12.22 2.91 12.22 2.91C12.71 3.88 12.41 4.89 12.33 5.09C12.84 5.64 13.13 6.32 13.13 7.11C13.13 9.97 11.27 10.73 9.48 10.93C9.73 11.23 9.98 11.68 10.04 12.27C10.67 12.49 11.54 12.8 12.27 11.87C12.5 11.62 12.96 10.96 13.58 10.99C14.25 11.01 13.9 11.42 13.65 11.6C13.33 11.84 12.84 12.56 12.75 12.78C12.59 13.23 12.07 14.09 10.08 13.71C10.08 14.38 10.08 14.96 10.08 15.16C10.08 15.41 10.23 15.67 10.64 15.59C13.71 14.53 16 11.53 16 8C16 3.58 12.42 0 8 0Z" fill="white"/>
</svg>




